STARTFONT 2.1
COMMENT
COMMENT Converted from OpenType font "truongsa_regular.ttf" by "otf2bdf 3.0".
COMMENT
FONT -FreeType-VPS Truong Sa Light Hoa-Medium-R-Normal--44-320-100-100-P-223-ISO10646-1
SIZE 32 100 100
FONTBOUNDINGBOX 42 61 -1 -10
STARTPROPERTIES 19
FOUNDRY "FreeType"
FAMILY_NAME "VPS Truong Sa Light Hoa"
WEIGHT_NAME "Medium"
SLANT "R"
SETWIDTH_NAME "Normal"
ADD_STYLE_NAME ""
PIXEL_SIZE 44
POINT_SIZE 320
RESOLUTION_X 100
RESOLUTION_Y 100
SPACING "P"
AVERAGE_WIDTH 223
CHARSET_REGISTRY "ISO10646"
CHARSET_ENCODING "1"
FONT_ASCENT 42
FONT_DESCENT 10
COPYRIGHT "VPS Font"
_OTF_FONTFILE "truongsa_regular.ttf"
_OTF_PSNAME "VPS Truong Sa Light Hoa"
ENDPROPERTIES
CHARS 270
STARTCHAR 0002
ENCODING 2
SWIDTH 652 0
DWIDTH 29 0
BBX 29 40 0 -7
BITMAP
00020000
00070000
000F8000
000F8000
001FC000
001FC000
0039E000
0039E000
0071F000
0070F000
0070F800
00E07800
00E07800
01C03C00
01C03C00
03803E00
03801E00
03801E00
07000F00
07FFFF00
07FFFF80
0FFFFF80
0E000780
1E0007C0
1C0003C0
1C0003C0
3C0003C0
380001E0
380001E0
780001F0
7C0003F0
FE0007F8
FE0007F8
00000000
00000000
000E0000
001E0000
001F0000
001E0000
000E0000
ENDCHAR
STARTCHAR 0003
ENCODING 3
SWIDTH 652 0
DWIDTH 29 0
BBX 29 50 0 -7
BITMAP
00070000
000F8000
000F8000
001DC000
0018E000
00306000
00603000
00401800
00000000
00000000
00020000
00070000
000F8000
000F8000
001FC000
001FC000
0039E000
0039E000
0071F000
0070F000
0070F800
00E07800
00E07800
01C03C00
01C03C00
03803E00
03801E00
03801E00
07000F00
07FFFF00
07FFFF80
0FFFFF80
0E000780
1E0007C0
1C0003C0
1C0003C0
3C0003C0
380001E0
380001E0
780001F0
7C0003F0
FE0007F8
FE0007F8
00000000
00000000
000E0000
001E0000
001F0000
001E0000
000E0000
ENDCHAR
STARTCHAR 0004
ENCODING 4
SWIDTH 652 0
DWIDTH 29 0
BBX 29 48 0 -7
BITMAP
00801000
00C02000
00606000
007FE000
003FC000
000F0000
00000000
00000000
00020000
00070000
000F8000
000F8000
001FC000
001FC000
0039E000
0039E000
0071F000
0070F000
0070F800
00E07800
00E07800
01C03C00
01C03C00
03803E00
03801E00
03801E00
07000F00
07FFFF00
07FFFF80
0FFFFF80
0E000780
1E0007C0
1C0003C0
1C0003C0
3C0003C0
380001E0
380001E0
780001F0
7C0003F0
FE0007F8
FE0007F8
00000000
00000000
000E0000
001E0000
001F0000
001E0000
000E0000
ENDCHAR
STARTCHAR 0005
ENCODING 5
SWIDTH 607 0
DWIDTH 27 0
BBX 25 39 2 -7
BITMAP
FFFFFE00
FFFFFE00
7F01FE00
3C000E00
3C000600
3C000000
3C000000
3C000000
3C000000
3C000000
3C000000
3C000000
3C003000
3FFFF000
3FFFF000
3FFFF000
3C003000
3C000000
3C000000
3C000000
3C000000
3C000000
3C000000
3C000000
3C000000
3C000000
3C000180
3C000380
3C000F80
7FFFFF80
FFFFFF00
FFFFFF00
00000000
00000000
00380000
00780000
007C0000
00780000
00380000
ENDCHAR
STARTCHAR 0006
ENCODING 6
SWIDTH 607 0
DWIDTH 27 0
BBX 25 51 2 -8
BITMAP
001C0000
003E0000
003E0000
00770000
00E38000
00C18000
0180C000
03006000
00000000
00000000
00000000
FFFFFE00
FFFFFE00
7F01FE00
3C000E00
3C000600
3C000000
3C000000
3C000000
3C000000
3C000000
3C000000
3C000000
3C003000
3FFFF000
3FFFF000
3FFFF000
3C003000
3C000000
3C000000
3C000000
3C000000
3C000000
3C000000
3C000000
3C000000
3C000000
3C000180
3C000380
3C000F80
7FFFFF80
FFFFFF00
FFFFFF00
00000000
00000000
00000000
001C0000
003E0000
003E0000
001E0000
00080000
ENDCHAR
STARTCHAR 0015
ENCODING 21
SWIDTH 697 0
DWIDTH 31 0
BBX 32 48 1 -8
BITMAP
0000003E
00000023
00000001
00000001
00000003
00000003
0000001E
00000030
FF8007F8
FF8007F8
3F0003E0
3E0001E0
3E0000E0
3E0000E0
3C0000E0
3C0000E0
3C0000E0
3C0000E0
3C0000E0
3C0000E0
3C0000E0
3C0000E0
3C0000E0
3C0000E0
3C0000E0
3C0000E0
3C0000E0
3C0000E0
3C0000E0
3C0000E0
3C0000E0
3C0000E0
1C0001E0
1E0001C0
1E0001C0
0F000380
0F800780
07E01F00
03FFFE00
00FFF800
003FC000
00000000
00000000
00070000
00078000
000F8000
00078000
00070000
ENDCHAR
STARTCHAR 0019
ENCODING 25
SWIDTH 652 0
DWIDTH 29 0
BBX 30 39 -1 -7
BITMAP
FF8003FC
FF8003FC
3F0000F8
1F0000F0
0F0000E0
0F8000E0
078001C0
07C00180
03C00380
01E00700
01F00600
00F80E00
00781C00
007C3800
003E3800
001F7000
000FE000
000FC000
0007C000
0007C000
0003C000
0003C000
0003C000
0003C000
0003C000
0003C000
0003C000
0003C000
0007C000
0007C000
001FF000
001FF000
00000000
00000000
00018000
0003C000
0007C000
0003C000
0003C000
ENDCHAR
STARTCHAR 001C
ENCODING 28
SWIDTH 652 0
DWIDTH 29 0
BBX 29 49 0 0
BITMAP
00000800
001C1800
003FF000
007FF000
0043C000
00C00000
00070000
000F8000
000F8000
001DC000
0018E000
00306000
00603000
00401800
00000000
00000000
00020000
00070000
000F8000
000F8000
001FC000
001FC000
0039E000
0039E000
0071F000
0070F000
0070F800
00E07800
00E07800
01C03C00
01C03C00
03803E00
03801E00
03801E00
07000F00
07FFFF00
07FFFF80
0FFFFF80
0E000780
1E0007C0
1C0003C0
1C0003C0
3C0003C0
380001E0
380001E0
780001F0
7C0003F0
FE0007F8
FE0007F8
ENDCHAR
STARTCHAR 001D
ENCODING 29
SWIDTH 697 0
DWIDTH 31 0
BBX 32 50 1 -1
BITMAP
00000400
000F8C00
001FFC00
001FF800
00300000
00000000
00000000
00000000
00000000
0000003E
00000023
00000001
00000001
00000003
00000003
0000001E
00000030
FF8007F8
FF8007F8
3F0003E0
3E0001E0
3E0000E0
3E0000E0
3C0000E0
3C0000E0
3C0000E0
3C0000E0
3C0000E0
3C0000E0
3C0000E0
3C0000E0
3C0000E0
3C0000E0
3C0000E0
3C0000E0
3C0000E0
3C0000E0
3C0000E0
3C0000E0
3C0000E0
3C0000E0
1C0001E0
1E0001C0
1E0001C0
0F000380
0F800780
07E01F00
03FFFE00
00FFF800
003FC000
ENDCHAR
STARTCHAR 0020
ENCODING 32
SWIDTH 270 0
DWIDTH 12 0
BBX 0 0 0 0
BITMAP
ENDCHAR
STARTCHAR 0021
ENCODING 33
SWIDTH 270 0
DWIDTH 12 0
BBX 5 34 3 -1
BITMAP
30
78
78
78
78
78
78
78
78
78
78
78
70
70
70
70
70
70
30
30
30
30
30
30
20
00
00
00
00
78
78
F8
78
20
ENDCHAR
STARTCHAR 0022
ENCODING 34
SWIDTH 315 0
DWIDTH 14 0
BBX 11 13 2 19
BITMAP
60C0
F1E0
F1E0
F1E0
E1E0
E1C0
E0C0
60C0
60C0
60C0
60C0
40C0
4080
ENDCHAR
STARTCHAR 0023
ENCODING 35
SWIDTH 765 0
DWIDTH 34 0
BBX 30 32 2 0
BITMAP
0001C0E0
000380C0
000381C0
000381C0
00070180
00070380
00070380
000E0700
000E0700
000E0700
001C0E00
1FFFFFFC
1FFFFFF8
00381C00
00381C00
00301C00
00703800
00703800
00E03000
7FFFFFE0
7FFFFFE0
FFFFFFE0
01C0E000
01C0E000
0381C000
0381C000
0381C000
07038000
07038000
06038000
0E070000
0E070000
ENDCHAR
STARTCHAR 0024
ENCODING 36
SWIDTH 540 0
DWIDTH 24 0
BBX 20 41 2 -5
BITMAP
006000
006000
006000
006000
03FE00
0FFF00
1C6380
3861C0
3060C0
7060C0
7060C0
706000
706000
786000
3C6000
3F6000
1FE000
0FF000
07FE00
01FF00
007F80
007FC0
0067E0
0061F0
0060F0
006070
006070
406070
E06070
E06070
706070
7060E0
3861C0
1E6780
0FFF00
03FC00
006000
006000
006000
006000
006000
ENDCHAR
STARTCHAR 0025
ENCODING 37
SWIDTH 855 0
DWIDTH 38 0
BBX 34 34 3 -1
BITMAP
03C0006000
1FF801E000
3C3F07C000
781FFFC000
700E618000
F00E030000
F00F030000
F00F060000
F00F060000
F00F0C0000
F00F0C0000
700E180000
781E300000
381C300000
1FF8600000
07E0600000
0000C00000
0000C00000
000183F800
000387BE00
00030E0700
00061C0780
00063C0380
000C3C0380
000C380380
00183803C0
00383803C0
0030380380
00603C0380
00601C0380
00C01E0700
00C00F0E00
018007FC00
018000E000
ENDCHAR
STARTCHAR 0026
ENCODING 38
SWIDTH 765 0
DWIDTH 34 0
BBX 32 34 1 -1
BITMAP
003E0000
00FF8000
01E3E000
0380E000
07007000
07007000
0F007000
0F007000
0F007000
0700E000
0781E000
0783C000
03C78000
03FE0000
01FC0000
01F007FE
03F803FC
0F7C01F0
1E3C00E0
3C3E00C0
381F01C0
700F8180
70078380
F003C700
F003E600
F001FE00
F000FC00
F0007C00
78007E00
7C01FF80
3F07CFF7
1FFF87FF
0FFE03FE
01F00030
ENDCHAR
STARTCHAR 0027
ENCODING 39
SWIDTH 157 0
DWIDTH 7 0
BBX 4 13 2 19
BITMAP
60
F0
F0
F0
E0
E0
E0
60
60
60
60
40
40
ENDCHAR
STARTCHAR 0028
ENCODING 40
SWIDTH 315 0
DWIDTH 14 0
BBX 8 40 4 -7
BITMAP
03
06
0E
0E
1C
1C
38
38
38
70
70
70
70
E0
E0
E0
E0
E0
E0
E0
E0
E0
E0
E0
E0
E0
E0
70
70
70
70
30
38
38
18
1C
0C
0E
06
07
ENDCHAR
STARTCHAR 0029
ENCODING 41
SWIDTH 315 0
DWIDTH 14 0
BBX 8 40 3 -7
BITMAP
C0
E0
60
70
30
38
38
1C
1C
1C
1C
0E
0E
0E
0E
0E
0F
07
07
07
07
07
07
0F
0F
0E
0E
0E
0E
0E
1C
1C
1C
38
38
38
70
70
E0
C0
ENDCHAR
STARTCHAR 002A
ENCODING 42
SWIDTH 472 0
DWIDTH 21 0
BBX 16 18 3 15
BITMAP
0180
03C0
03C0
03C0
E18F
F18F
F99F
7D3E
0340
0180
1F78
F93F
F99F
F18F
4386
03C0
03C0
0380
ENDCHAR
STARTCHAR 002B
ENCODING 43
SWIDTH 832 0
DWIDTH 37 0
BBX 26 27 6 0
BITMAP
001C0000
001C0000
001C0000
001C0000
001C0000
001C0000
001C0000
001C0000
001C0000
001C0000
001C0000
001C0000
FFFFFFC0
FFFFFFC0
FFFFFFC0
001C0000
001C0000
001C0000
001C0000
001C0000
001C0000
001C0000
001C0000
001C0000
001C0000
001C0000
001C0000
ENDCHAR
STARTCHAR 002C
ENCODING 44
SWIDTH 270 0
DWIDTH 12 0
BBX 6 12 3 -8
BITMAP
70
F8
FC
FC
7C
0C
08
18
10
30
60
40
ENDCHAR
STARTCHAR 002D
ENCODING 45
SWIDTH 315 0
DWIDTH 14 0
BBX 11 3 2 9
BITMAP
FFE0
FFE0
FFE0
ENDCHAR
STARTCHAR 002E
ENCODING 46
SWIDTH 270 0
DWIDTH 12 0
BBX 4 5 4 -1
BITMAP
F0
F0
F0
F0
60
ENDCHAR
STARTCHAR 002F
ENCODING 47
SWIDTH 247 0
DWIDTH 11 0
BBX 13 37 -1 -4
BITMAP
0018
0018
0010
0030
0030
0030
0060
0060
0060
00C0
00C0
00C0
0180
0180
0180
0300
0300
0300
0200
0600
0600
0600
0C00
0C00
0C00
1800
1800
1800
3000
3000
3000
6000
6000
6000
4000
C000
C000
ENDCHAR
STARTCHAR 0030
ENCODING 48
SWIDTH 540 0
DWIDTH 24 0
BBX 22 34 1 -1
BITMAP
007800
03FF00
07FF80
0F01C0
1E00E0
1C00F0
3C0070
380078
780078
780078
780038
78003C
78003C
F8003C
F8003C
F8003C
F8003C
F8003C
F8003C
F8003C
F8003C
78003C
78003C
780078
780078
780078
380078
3C0070
1C00F0
1E01E0
0F03C0
07FF80
03FF00
003000
ENDCHAR
STARTCHAR 0031
ENCODING 49
SWIDTH 540 0
DWIDTH 24 0
BBX 16 32 4 1
BITMAP
00E0
03E0
1FE0
FFE0
FFE0
01E0
01E0
01E0
01E0
01E0
01E0
01E0
01E0
01E0
01E0
01E0
01E0
01E0
01E0
01E0
01E0
01E0
01E0
01E0
01E0
01E0
01E0
01E0
03E0
0FF8
7FFF
7FFF
ENDCHAR
STARTCHAR 0032
ENCODING 50
SWIDTH 540 0
DWIDTH 24 0
BBX 21 33 1 0
BITMAP
007C00
03FF80
0FFFC0
1E01E0
3C00F0
7800F8
780078
700078
780078
780078
7C00F8
3800F0
0001F0
0001E0
0003E0
0007C0
000F80
001F00
003E00
007800
00F000
01E000
03C000
078000
0F0000
1E0000
1C0000
380038
780078
7003F8
FFFFF0
FFFFF0
FFFFE0
ENDCHAR
STARTCHAR 0033
ENCODING 51
SWIDTH 540 0
DWIDTH 24 0
BBX 21 34 1 -1
BITMAP
00F800
07FF00
0F9F80
1C03C0
3C01E0
7801E0
7800F0
7800F0
3800F0
0000F0
0001E0
0001E0
0003C0
000780
003F00
03F800
03FF00
0007C0
0001E0
0001F0
0000F0
0000F8
000078
000078
400078
E00078
E00078
E000F0
F000F0
F001E0
7803C0
3F1F80
1FFE00
01F000
ENDCHAR
STARTCHAR 0034
ENCODING 52
SWIDTH 540 0
DWIDTH 24 0
BBX 24 33 0 0
BITMAP
0000C0
0003C0
0007C0
000FC0
001FC0
003DC0
0079C0
00F1C0
00E1C0
01C1C0
0381C0
0781C0
0701C0
0E01C0
0E01C0
1C01C0
1C01C0
3801C0
3801C0
7001C0
7001C0
7001C0
FFFFFF
FFFFFF
0001C0
0001C0
0001C0
0001C0
0001C0
0001C0
0003E0
000FF8
000FF8
ENDCHAR
STARTCHAR 0035
ENCODING 53
SWIDTH 540 0
DWIDTH 24 0
BBX 22 33 1 -1
BITMAP
1FFFE0
1FFFE0
1FFF80
1FF000
1C0000
180000
180000
180000
180000
180000
380000
380000
38FE00
3FFF80
3F8FE0
3C01F0
3000F0
0000F8
000078
00007C
00007C
00007C
00007C
000078
F00078
F00078
F000F8
F000F0
F001E0
7C07C0
3FFF80
0FFF00
00E000
ENDCHAR
STARTCHAR 0036
ENCODING 54
SWIDTH 540 0
DWIDTH 24 0
BBX 22 34 1 -1
BITMAP
0000E0
000FF0
003F80
00FC00
01F000
03C000
078000
0F0000
0E0000
1E0000
3C0000
3C0000
3C0000
783F00
78FFC0
7BFFE0
7F01F0
7C00F8
F80078
F8007C
F8003C
F0003C
78003C
78003C
78003C
78003C
78003C
3C0078
3C0078
1E00F0
0F01E0
07FFC0
03FF80
007800
ENDCHAR
STARTCHAR 0037
ENCODING 55
SWIDTH 540 0
DWIDTH 24 0
BBX 20 33 3 -1
BITMAP
FFFFF0
FFFFF0
FFFFE0
F000E0
E000C0
C001C0
C001C0
000380
000380
000380
000700
000700
000E00
000E00
001E00
001C00
003C00
003800
003800
007800
007000
00F000
00F000
01E000
01E000
01E000
03C000
03C000
07C000
078000
078000
078000
020000
ENDCHAR
STARTCHAR 0038
ENCODING 56
SWIDTH 540 0
DWIDTH 24 0
BBX 22 34 1 -1
BITMAP
007800
03FF80
0FCFE0
1E01F0
3C00F0
380078
380078
700038
780038
780070
780070
3C00E0
3F01C0
1FC380
0FFF00
07FE00
01FF80
03FFE0
0F0FF0
1E03F8
3C00F8
78007C
70003C
F0003C
E0003C
E0001C
E0003C
F0003C
700038
780070
3C00E0
1FCFC0
07FF00
00F000
ENDCHAR
STARTCHAR 0039
ENCODING 57
SWIDTH 540 0
DWIDTH 24 0
BBX 22 34 1 -1
BITMAP
00FC00
03FF00
0FCFC0
1E03E0
3C01F0
3800F0
780078
780078
F00078
F0003C
F0003C
F0003C
F0003C
78003C
78003C
78007C
3C00FC
3F03FC
1FFF78
07FE78
01F078
000078
0000F0
0000F0
0001E0
0001E0
0003C0
000780
000F00
003E00
00FC00
07F000
1FC000
1C0000
ENDCHAR
STARTCHAR 003A
ENCODING 58
SWIDTH 270 0
DWIDTH 12 0
BBX 4 21 4 -1
BITMAP
60
F0
F0
F0
70
00
00
00
00
00
00
00
00
00
00
00
F0
F0
F0
F0
60
ENDCHAR
STARTCHAR 003B
ENCODING 59
SWIDTH 270 0
DWIDTH 12 0
BBX 6 28 3 -8
BITMAP
30
F8
F8
F8
70
00
00
00
00
00
00
00
00
00
00
00
70
F8
FC
FC
7C
0C
08
18
10
30
60
40
ENDCHAR
STARTCHAR 003C
ENCODING 60
SWIDTH 832 0
DWIDTH 37 0
BBX 25 23 6 2
BITMAP
00000080
00000380
00000F80
00007F00
0001F800
000FE000
003F0000
01FC0000
07F00000
3F800000
FE000000
F0000000
F8000000
7F000000
0FC00000
03F80000
007E0000
001FC000
0007F000
0000FE00
00003F80
00000780
00000180
ENDCHAR
STARTCHAR 003D
ENCODING 61
SWIDTH 832 0
DWIDTH 37 0
BBX 26 11 6 8
BITMAP
FFFFFFC0
FFFFFFC0
FFFFFFC0
00000000
00000000
00000000
00000000
00000000
00000000
FFFFFFC0
FFFFFFC0
ENDCHAR
STARTCHAR 003E
ENCODING 62
SWIDTH 832 0
DWIDTH 37 0
BBX 25 23 6 2
BITMAP
80000000
E0000000
F8000000
7F000000
0FC00000
03F80000
00FE0000
001FC000
0007F000
0000FE00
00003F80
00000780
00000F80
00007F00
0001F800
000FE000
003F0000
01FC0000
07F00000
3F800000
FE000000
F0000000
C0000000
ENDCHAR
STARTCHAR 003F
ENCODING 63
SWIDTH 427 0
DWIDTH 19 0
BBX 17 34 1 -1
BITMAP
03E000
1FF800
383E00
700E00
F00700
F00700
F00780
700380
000380
000780
000780
000780
000700
000F00
001E00
007E00
01FC00
03F000
07C000
070000
060000
060000
060000
060000
060000
000000
000000
000000
000000
070000
0F8000
0F8000
078000
020000
ENDCHAR
STARTCHAR 0040
ENCODING 64
SWIDTH 967 0
DWIDTH 43 0
BBX 38 38 3 -6
BITMAP
0000040000
0003FFF000
000E001C00
0038000300
00E0000180
01C0000040
0380000020
0700000030
0E00000010
1C00000008
18001C1C08
3800E33808
3001C0B808
700380B804
700700F804
600F00F004
E00E00F004
E01E00F00C
E01C00E008
E03C00E008
E03C00E008
E03C01E018
E03801C010
E03803C030
603803C020
601805C040
601C0DC080
300E18C300
3007E0FE00
1800000000
1C00000000
0E00000000
0700000000
03800000C0
01C0000180
0078000E00
001F007800
0003FF8000
ENDCHAR
STARTCHAR 0041
ENCODING 65
SWIDTH 652 0
DWIDTH 29 0
BBX 29 33 0 0
BITMAP
00020000
00070000
000F8000
000F8000
001FC000
001FC000
0039E000
0039E000
0071F000
0070F000
0070F800
00E07800
00E07800
01C03C00
01C03C00
03803E00
03801E00
03801E00
07000F00
07FFFF00
07FFFF80
0FFFFF80
0E000780
1E0007C0
1C0003C0
1C0003C0
3C0003C0
380001E0
380001E0
780001F0
7C0003F0
FE0007F8
FE0007F8
ENDCHAR
STARTCHAR 0042
ENCODING 66
SWIDTH 652 0
DWIDTH 29 0
BBX 26 32 2 0
BITMAP
FFFFE000
FFFFF800
7F03FE00
3C003E00
3C001F00
3C000F00
3C000F00
3C000F00
3C000F00
3C001F00
3C003E00
3C007C00
3C00F800
3C07F000
3C3F8000
3FFFF800
3FF0FE00
3E003F00
3C000F80
3C000780
3C0007C0
3C0003C0
3C0003C0
3C0003C0
3C0003C0
3C0007C0
3C0007C0
3C000F80
3C003F00
7FCFFF00
FFFFFC00
FFFFF000
ENDCHAR
STARTCHAR 0043
ENCODING 67
SWIDTH 697 0
DWIDTH 31 0
BBX 28 34 2 -1
BITMAP
000FF000
007FFE00
01FFFF80
03E00FC0
078007E0
0F0003E0
1E0001E0
3E0000E0
3C000060
78000060
78000000
F8000000
F8000000
F0000000
F0000000
F0000000
F0000000
F0000000
F0000000
F0000000
F0000000
F8000000
F8000000
F8000000
78000000
7C000030
3E000070
3E0000F0
1F0001E0
0FC003C0
07F00F80
03FFFF00
00FFFC00
001FE000
ENDCHAR
STARTCHAR 0044
ENCODING 68
SWIDTH 720 0
DWIDTH 32 0
BBX 29 32 2 0
BITMAP
FFFF8000
FFFFF000
7E03FC00
3C007E00
3C001F00
3C000F80
3C0007C0
3C0003E0
3C0001E0
3C0001F0
3C0001F0
3C0000F0
3C0000F0
3C0000F0
3C0000F8
3C0000F8
3C0000F8
3C0000F8
3C0000F0
3C0000F0
3C0000F0
3C0001F0
3C0001E0
3C0003E0
3C0003E0
3C0007C0
3C000F80
3C001F00
3C007E00
7F03FC00
FFFFE000
FFFF0000
ENDCHAR
STARTCHAR 0045
ENCODING 69
SWIDTH 607 0
DWIDTH 27 0
BBX 25 32 2 0
BITMAP
FFFFFE00
FFFFFE00
7F01FE00
3C000E00
3C000600
3C000000
3C000000
3C000000
3C000000
3C000000
3C000000
3C000000
3C003000
3FFFF000
3FFFF000
3FFFF000
3C003000
3C000000
3C000000
3C000000
3C000000
3C000000
3C000000
3C000000
3C000000
3C000000
3C000180
3C000380
3C000F80
7FFFFF80
FFFFFF00
FFFFFF00
ENDCHAR
STARTCHAR 0046
ENCODING 70
SWIDTH 562 0
DWIDTH 25 0
BBX 24 32 1 0
BITMAP
7FFFFE
7FFFFE
3F00FF
1E000F
1E0003
1E0000
1E0000
1E0000
1E0000
1E0000
1E0000
1E0000
1E0000
1E0030
1FFFF8
1FFFF8
1FFFF8
1E0030
1E0000
1E0000
1E0000
1E0000
1E0000
1E0000
1E0000
1E0000
1E0000
1E0000
1E0000
3F0000
FFC000
FFC000
ENDCHAR
STARTCHAR 0047
ENCODING 71
SWIDTH 765 0
DWIDTH 34 0
BBX 30 34 2 -1
BITMAP
0007F800
003FFF00
00FFFFC0
03F007E0
07C001F0
0F8000F0
1F000070
1E000030
3E000030
7C000000
7C000000
78000000
F8000000
F8000000
F0000000
F0000000
F0000000
F0001FF8
F0001FF8
F00000F8
F0000078
F8000078
F8000038
78000038
7C000038
7C000078
3E000078
1F00007C
1F80007C
0FC000F8
07F003F0
01FE1FC0
00FFFF00
000FF800
ENDCHAR
STARTCHAR 0048
ENCODING 72
SWIDTH 765 0
DWIDTH 34 0
BBX 31 32 2 0
BITMAP
FF0003FE
FF0003FE
7E0000F8
3C0000F0
3C0000F0
3C0000F0
3C0000F0
3C0000F0
3C0000F0
3C0000F0
3C0000F0
3C0000F0
3C0000F0
3FFFFFF0
3FFFFFF0
3FFFFFF0
3C0000F0
3C0000F0
3C0000F0
3C0000F0
3C0000F0
3C0000F0
3C0000F0
3C0000F0
3C0000F0
3C0000F0
3C0000F0
3C0000F0
3C0000F0
7E0001F8
FF0003FE
FF0003FE
ENDCHAR
STARTCHAR 0049
ENCODING 73
SWIDTH 270 0
DWIDTH 12 0
BBX 9 32 2 0
BITMAP
FF80
FF00
7E00
3C00
3C00
3C00
3C00
3C00
3C00
3C00
3C00
3C00
3C00
3C00
3C00
3C00
3C00
3C00
3C00
3C00
3C00
3C00
3C00
3C00
3C00
3C00
3C00
3C00
3C00
7E00
FF00
FF80
ENDCHAR
STARTCHAR 004A
ENCODING 74
SWIDTH 450 0
DWIDTH 20 0
BBX 19 33 0 -1
BITMAP
003FE0
003FE0
000F80
000780
000780
000780
000780
000780
000780
000780
000780
000780
000780
000780
000780
000780
000780
000780
000780
000780
000780
3C0780
7E0780
FC0780
F00780
E00780
E00F00
E00F00
E00F00
F01E00
7EFE00
3FF800
0FF000
ENDCHAR
STARTCHAR 004B
ENCODING 75
SWIDTH 607 0
DWIDTH 27 0
BBX 27 32 2 0
BITMAP
FF00FF80
FF00FF80
7E003E00
3C003C00
3C003800
3C007800
3C00F000
3C01E000
3C03C000
3C038000
3C070000
3C0E0000
3C1C0000
3C3E0000
3C7F0000
3DFF0000
3FCF8000
3F87C000
3F03E000
3E01E000
3C00F000
3C00F800
3C007800
3C003C00
3C003C00
3C001E00
3C001F00
3C000F00
3C000F80
7E000FC0
FF003FE0
FF003FE0
ENDCHAR
STARTCHAR 004C
ENCODING 76
SWIDTH 562 0
DWIDTH 25 0
BBX 24 32 2 0
BITMAP
FF8000
FF8000
7E0000
3C0000
3C0000
3C0000
3C0000
3C0000
3C0000
3C0000
3C0000
3C0000
3C0000
3C0000
3C0000
3C0000
3C0000
3C0000
3C0000
3C0000
3C0000
3C0000
3C0000
3C0000
3C0000
3C0000
3C0000
3C0003
3C000F
7F81FF
FFFFFF
FFFFFE
ENDCHAR
STARTCHAR 004D
ENCODING 77
SWIDTH 810 0
DWIDTH 36 0
BBX 35 32 1 0
BITMAP
FF00001FC0
FF80003FC0
1F80003F80
1F80007F00
1FC0007E00
1FC0007E00
1DE000EE00
1DE000EE00
1DE001CE00
1CF001CE00
1CF001CE00
1C78038E00
1C78038E00
1C38070F00
1C3C070F00
1C3C0E0F00
1C1E0E0F00
1C1E1C0F00
1C0F1C0F00
1C0F380F00
1C07B80F00
1C07F80F00
1C07F00F00
1C03F00F00
1C03E00F00
1C01E00F00
1C00C00F00
1C00800F00
3C00000F00
3C00001F80
FF00007FC0
FF00007FE0
ENDCHAR
STARTCHAR 004E
ENCODING 78
SWIDTH 720 0
DWIDTH 32 0
BBX 31 32 0 0
BITMAP
FF0001FE
FF8001FE
1FC00078
0FE00038
0FF00038
0FF80038
0EF80038
0E7C0038
0E3E0038
0E1F0038
0E0F0038
0E078038
0E07C038
0E03E038
0E01F038
0E00F038
0E00F838
0E007C38
0E003C38
0E001E38
0E001F38
0E000F38
0E0007B8
0E0007F8
0E0003F8
0E0001F8
0E0001F8
0E0000F8
1E000078
1F000078
7FC00038
7FC00018
ENDCHAR
STARTCHAR 004F
ENCODING 79
SWIDTH 765 0
DWIDTH 34 0
BBX 31 34 2 -1
BITMAP
000FC000
007FF800
01FFFE00
07E01F80
0F8007C0
1F0003E0
1E0001F0
3C0000F0
7C0000F8
78000078
7800007C
F800007C
F000003C
F000003C
F000003C
F000003C
F000003E
F000003E
F000003E
F000003C
F000003C
F000003C
F800007C
7800007C
78000078
7C0000F8
3C0000F0
1E0001F0
1F0003E0
0F8007C0
07C00F80
01FFFF00
00FFFC00
001FE000
ENDCHAR
STARTCHAR 0050
ENCODING 80
SWIDTH 585 0
DWIDTH 26 0
BBX 24 32 2 0
BITMAP
FFFF80
FFFFF0
7F07FC
3E007E
3C003E
3C001F
3C001F
3C000F
3C000F
3C000F
3C000F
3C001F
3C001E
3C003E
3C007C
3C01F8
3C1FE0
3FFF80
3FFC00
3C0000
3C0000
3C0000
3C0000
3C0000
3C0000
3C0000
3C0000
3C0000
3C0000
7E0000
FF8000
FF8000
ENDCHAR
STARTCHAR 0051
ENCODING 81
SWIDTH 765 0
DWIDTH 34 0
BBX 31 39 2 -6
BITMAP
000FC000
007FF800
01FFFE00
07E01F80
0F8007C0
1F0003E0
1E0001E0
3C0000F0
7C0000F8
78000078
78000078
F800007C
F000003C
F000003C
F000003C
F000003C
F000003E
F000003E
F000003E
F000003C
F000003C
F000003C
F800007C
F800007C
78000078
7C0100F8
3C0380F0
3E0181F0
1F0183E0
0F8187C0
07C1DF80
01FFFE00
00FFFC00
001FF000
00007800
00003F00
00001FFC
000007FC
000001FC
ENDCHAR
STARTCHAR 0052
ENCODING 82
SWIDTH 630 0
DWIDTH 28 0
BBX 27 32 2 0
BITMAP
FFFFE000
FFFFF800
7F07FE00
3C007F00
3C001F00
3C000F00
3C000F00
3C000F80
3C000F00
3C000F00
3C001F00
3C003E00
3C007E00
3C01FC00
3C0FF000
3DFFC000
3FFFC000
3FE3C000
3C03E000
3C01F000
3C00F000
3C00F800
3C007800
3C003C00
3C003C00
3C001E00
3C001E00
3C001F00
3C000F00
7E001F80
FF803FC0
FF807FE0
ENDCHAR
STARTCHAR 0053
ENCODING 83
SWIDTH 562 0
DWIDTH 25 0
BBX 24 34 0 -1
BITMAP
003F00
01FFE0
07E7F8
0F00FC
1E003C
1C001C
3C000C
3C0004
3C0000
3C0000
3C0000
3E0000
3F0000
1FE000
0FFE00
07FFE0
03FFF8
007FFC
0003FE
00007F
00001F
00000F
000007
000007
400007
E00007
700007
70000F
78000E
3C001C
1F007C
0FFFF8
03FFE0
00FF00
ENDCHAR
STARTCHAR 0054
ENCODING 84
SWIDTH 585 0
DWIDTH 26 0
BBX 26 32 0 0
BITMAP
7FFFFF80
7FFFFFC0
FE3F1FC0
F01E03C0
E01E01C0
C01E00C0
001E0000
001E0000
001E0000
001E0000
001E0000
001E0000
001E0000
001E0000
001E0000
001E0000
001E0000
001E0000
001E0000
001E0000
001E0000
001E0000
001E0000
001E0000
001E0000
001E0000
001E0000
001E0000
001E0000
001F0000
007FC000
007FC000
ENDCHAR
STARTCHAR 0055
ENCODING 85
SWIDTH 697 0
DWIDTH 31 0
BBX 29 33 1 -1
BITMAP
FF8007F8
FF8007F8
3F0003E0
3E0001E0
3E0000E0
3E0000E0
3C0000E0
3C0000E0
3C0000E0
3C0000E0
3C0000E0
3C0000E0
3C0000E0
3C0000E0
3C0000E0
3C0000E0
3C0000E0
3C0000E0
3C0000E0
3C0000E0
3C0000E0
3C0000E0
3C0000E0
3C0000E0
1C0001E0
1E0001C0
1E0001C0
0F000380
0F800780
07E01F00
03FFFE00
00FFF800
003FC000
ENDCHAR
STARTCHAR 0056
ENCODING 86
SWIDTH 652 0
DWIDTH 29 0
BBX 29 33 0 -1
BITMAP
FF0007F8
FF0007F8
7E0001F0
7C0000F0
3C0000E0
3C0000E0
3C0001E0
1C0001C0
1E0001C0
1E0001C0
1E000380
0F000380
0F000380
0F000700
07800700
07800700
07800E00
03C00E00
03C01E00
03E01C00
01E01C00
01E03800
00F03800
00F07800
00787000
007CF000
003CE000
003FE000
001FC000
001F8000
000F8000
000F0000
00060000
ENDCHAR
STARTCHAR 0057
ENCODING 87
SWIDTH 922 0
DWIDTH 41 0
BBX 41 33 0 -1
BITMAP
FF807F807F80
FF807F807F80
7E003F001F00
3C001E000E00
3C001E000E00
3C001E000C00
3C001E000C00
1C003E001C00
1E003E001C00
1E003E001C00
1E003F001800
0E003F001800
0E007F003800
0F0077803800
0F0067803800
0700E7803000
0780E3C07000
0780C3C07000
0781C3C06000
0381C1E0E000
03C181E0E000
03C381E0E000
03C380F1C000
01E700F1C000
01E70079C000
01EF007B8000
00FE007F8000
00FE003F8000
00FE003F0000
007C001F0000
007C001E0000
0038000E0000
003000040000
ENDCHAR
STARTCHAR 0058
ENCODING 88
SWIDTH 652 0
DWIDTH 29 0
BBX 28 32 1 0
BITMAP
FF803FC0
FF003FC0
3E000F00
3E000F00
1E000E00
0F001C00
0F801C00
07803800
03C07000
03E07000
01F0E000
00F1C000
00FB8000
007F0000
003F0000
001F0000
001F8000
003FC000
007FC000
0073E000
00E1F000
01C0F800
01C07800
03803C00
07003E00
07001E00
0E000F00
1E000F80
1C000780
3C0007C0
FF000FF0
FF001FF0
ENDCHAR
STARTCHAR 0059
ENCODING 89
SWIDTH 652 0
DWIDTH 29 0
BBX 30 32 -1 0
BITMAP
FF8003FC
FF8003FC
3F0000F8
1F0000F0
0F0000E0
0F8000E0
078001C0
07C00180
03C00380
01E00700
01F00600
00F80E00
00781C00
007C3800
003E3800
001F7000
000FE000
000FC000
0007C000
0007C000
0003C000
0003C000
0003C000
0003C000
0003C000
0003C000
0003C000
0003C000
0007C000
0007C000
001FF000
001FF000
ENDCHAR
STARTCHAR 005A
ENCODING 90
SWIDTH 540 0
DWIDTH 24 0
BBX 23 32 1 0
BITMAP
3FFFFC
3FFFFC
3F007C
38007C
300078
2000F8
0000F0
0001E0
0003E0
0003C0
000780
000F80
001F00
001E00
003C00
007C00
00F800
00F000
01E000
03E000
07C000
078000
0F8000
1F0000
3E0000
3C0000
7C0006
78000E
F8003E
F807FC
FFFFFC
FFFFFC
ENDCHAR
STARTCHAR 005B
ENCODING 91
SWIDTH 315 0
DWIDTH 14 0
BBX 8 39 4 -7
BITMAP
FF
FF
F0
E0
E0
E0
E0
E0
E0
E0
E0
E0
E0
E0
E0
E0
E0
E0
E0
E0
E0
E0
E0
E0
E0
E0
E0
E0
E0
E0
E0
E0
E0
E0
E0
E0
FF
FF
7F
ENDCHAR
STARTCHAR 005C
ENCODING 92
SWIDTH 247 0
DWIDTH 11 0
BBX 13 37 -1 -4
BITMAP
C000
C000
C000
6000
6000
6000
3000
3000
3000
1800
1800
1800
0800
0C00
0C00
0400
0600
0600
0600
0300
0300
0300
0180
0180
0180
00C0
00C0
00C0
0040
0060
0060
0020
0030
0030
0030
0018
0018
ENDCHAR
STARTCHAR 005D
ENCODING 93
SWIDTH 315 0
DWIDTH 14 0
BBX 7 39 3 -7
BITMAP
FE
FE
0E
0E
0E
0E
0E
0E
0E
0E
0E
0E
0E
0E
0E
0E
0E
0E
0E
0E
0E
0E
0E
0E
0E
0E
0E
0E
0E
0E
0E
0E
0E
0E
0E
0E
FE
FE
FC
ENDCHAR
STARTCHAR 005E
ENCODING 94
SWIDTH 990 0
DWIDTH 44 0
BBX 26 13 9 19
BITMAP
001E0000
003F0000
007F8000
00FBC000
01E1E000
03C0F000
03807800
07003C00
0E000E00
1C000700
30000380
60000180
C00000C0
ENDCHAR
STARTCHAR 005F
ENCODING 95
SWIDTH 495 0
DWIDTH 22 0
BBX 22 2 0 -10
BITMAP
FFFFFC
FFFFFC
ENDCHAR
STARTCHAR 0060
ENCODING 96
SWIDTH 495 0
DWIDTH 22 0
BBX 10 8 5 23
BITMAP
E000
F000
7800
3C00
0E00
0700
0180
00C0
ENDCHAR
STARTCHAR 0061
ENCODING 97
SWIDTH 652 0
DWIDTH 29 0
BBX 29 33 0 0
BITMAP
00020000
00070000
000F8000
000F8000
001FC000
001FC000
0039E000
0039E000
0071F000
0070F000
0070F800
00E07800
00E07800
01C03C00
01C03C00
03803E00
03801E00
03801E00
07000F00
07FFFF00
07FFFF80
0FFFFF80
0E000780
1E0007C0
1C0003C0
1C0003C0
3C0003C0
380001E0
380001E0
780001F0
7C0003F0
FE0007F8
FE0007F8
ENDCHAR
STARTCHAR 0062
ENCODING 98
SWIDTH 652 0
DWIDTH 29 0
BBX 26 32 2 0
BITMAP
FFFFE000
FFFFF800
7F03FE00
3C003E00
3C001F00
3C000F00
3C000F00
3C000F00
3C000F00
3C001F00
3C003E00
3C007C00
3C00F800
3C07F000
3C3F8000
3FFFF800
3FF0FE00
3E003F00
3C000F80
3C000780
3C0007C0
3C0003C0
3C0003C0
3C0003C0
3C0003C0
3C0007C0
3C0007C0
3C000F80
3C003F00
7FCFFF00
FFFFFC00
FFFFF000
ENDCHAR
STARTCHAR 0063
ENCODING 99
SWIDTH 697 0
DWIDTH 31 0
BBX 28 34 2 -1
BITMAP
000FF000
007FFE00
01FFFF80
03E00FC0
078007E0
0F0003E0
1E0001E0
3E0000E0
3C000060
78000060
78000000
F8000000
F8000000
F0000000
F0000000
F0000000
F0000000
F0000000
F0000000
F0000000
F0000000
F8000000
F8000000
F8000000
78000000
7C000030
3E000070
3E0000F0
1F0001E0
0FC003C0
07F00F80
03FFFF00
00FFFC00
001FE000
ENDCHAR
STARTCHAR 0064
ENCODING 100
SWIDTH 720 0
DWIDTH 32 0
BBX 29 32 2 0
BITMAP
FFFF8000
FFFFF000
7E03FC00
3C007E00
3C001F00
3C000F80
3C0007C0
3C0003E0
3C0001E0
3C0001F0
3C0001F0
3C0000F0
3C0000F0
3C0000F0
3C0000F8
3C0000F8
3C0000F8
3C0000F8
3C0000F0
3C0000F0
3C0000F0
3C0001F0
3C0001E0
3C0003E0
3C0003E0
3C0007C0
3C000F80
3C001F00
3C007E00
7F03FC00
FFFFE000
FFFF0000
ENDCHAR
STARTCHAR 0065
ENCODING 101
SWIDTH 607 0
DWIDTH 27 0
BBX 25 32 2 0
BITMAP
FFFFFE00
FFFFFE00
7F01FE00
3C000E00
3C000600
3C000000
3C000000
3C000000
3C000000
3C000000
3C000000
3C000000
3C003000
3FFFF000
3FFFF000
3FFFF000
3C003000
3C000000
3C000000
3C000000
3C000000
3C000000
3C000000
3C000000
3C000000
3C000000
3C000180
3C000380
3C000F80
7FFFFF80
FFFFFF00
FFFFFF00
ENDCHAR
STARTCHAR 0066
ENCODING 102
SWIDTH 562 0
DWIDTH 25 0
BBX 24 32 1 0
BITMAP
7FFFFE
7FFFFE
3F00FF
1E000F
1E0003
1E0000
1E0000
1E0000
1E0000
1E0000
1E0000
1E0000
1E0000
1E0030
1FFFF8
1FFFF8
1FFFF8
1E0030
1E0000
1E0000
1E0000
1E0000
1E0000
1E0000
1E0000
1E0000
1E0000
1E0000
1E0000
3F0000
FFC000
FFC000
ENDCHAR
STARTCHAR 0067
ENCODING 103
SWIDTH 765 0
DWIDTH 34 0
BBX 30 34 2 -1
BITMAP
0007F800
003FFF00
00FFFFC0
03F007E0
07C001F0
0F8000F0
1F000070
1E000030
3E000030
7C000000
7C000000
78000000
F8000000
F8000000
F0000000
F0000000
F0000000
F0001FF8
F0001FF8
F00000F8
F0000078
F8000078
F8000038
78000038
7C000038
7C000078
3E000078
1F00007C
1F80007C
0FC000F8
07F003F0
01FE1FC0
00FFFF00
000FF800
ENDCHAR
STARTCHAR 0068
ENCODING 104
SWIDTH 765 0
DWIDTH 34 0
BBX 31 32 2 0
BITMAP
FF0003FE
FF0003FE
7E0000F8
3C0000F0
3C0000F0
3C0000F0
3C0000F0
3C0000F0
3C0000F0
3C0000F0
3C0000F0
3C0000F0
3C0000F0
3FFFFFF0
3FFFFFF0
3FFFFFF0
3C0000F0
3C0000F0
3C0000F0
3C0000F0
3C0000F0
3C0000F0
3C0000F0
3C0000F0
3C0000F0
3C0000F0
3C0000F0
3C0000F0
3C0000F0
7E0001F8
FF0003FE
FF0003FE
ENDCHAR
STARTCHAR 0069
ENCODING 105
SWIDTH 270 0
DWIDTH 12 0
BBX 9 32 2 0
BITMAP
FF80
FF00
7E00
3C00
3C00
3C00
3C00
3C00
3C00
3C00
3C00
3C00
3C00
3C00
3C00
3C00
3C00
3C00
3C00
3C00
3C00
3C00
3C00
3C00
3C00
3C00
3C00
3C00
3C00
7E00
FF00
FF80
ENDCHAR
STARTCHAR 006A
ENCODING 106
SWIDTH 450 0
DWIDTH 20 0
BBX 19 33 0 -1
BITMAP
003FE0
003FE0
000F80
000780
000780
000780
000780
000780
000780
000780
000780
000780
000780
000780
000780
000780
000780
000780
000780
000780
000780
3C0780
7E0780
FC0780
F00780
E00780
E00F00
E00F00
E00F00
F01E00
7EFE00
3FF800
0FF000
ENDCHAR
STARTCHAR 006B
ENCODING 107
SWIDTH 607 0
DWIDTH 27 0
BBX 27 32 2 0
BITMAP
FF00FF80
FF00FF80
7E003E00
3C003C00
3C003800
3C007800
3C00F000
3C01E000
3C03C000
3C038000
3C070000
3C0E0000
3C1C0000
3C3E0000
3C7F0000
3DFF0000
3FCF8000
3F87C000
3F03E000
3E01E000
3C00F000
3C00F800
3C007800
3C003C00
3C003C00
3C001E00
3C001F00
3C000F00
3C000F80
7E000FC0
FF003FE0
FF003FE0
ENDCHAR
STARTCHAR 006C
ENCODING 108
SWIDTH 562 0
DWIDTH 25 0
BBX 24 32 2 0
BITMAP
FF8000
FF8000
7E0000
3C0000
3C0000
3C0000
3C0000
3C0000
3C0000
3C0000
3C0000
3C0000
3C0000
3C0000
3C0000
3C0000
3C0000
3C0000
3C0000
3C0000
3C0000
3C0000
3C0000
3C0000
3C0000
3C0000
3C0000
3C0003
3C000F
7F81FF
FFFFFF
FFFFFE
ENDCHAR
STARTCHAR 006D
ENCODING 109
SWIDTH 810 0
DWIDTH 36 0
BBX 35 32 1 0
BITMAP
FF00001FC0
FF80003FC0
1F80003F80
1F80007F00
1FC0007E00
1FC0007E00
1DE000EE00
1DE000EE00
1DE001CE00
1CF001CE00
1CF001CE00
1C78038E00
1C78038E00
1C38070F00
1C3C070F00
1C3C0E0F00
1C1E0E0F00
1C1E1C0F00
1C0F1C0F00
1C0F380F00
1C07B80F00
1C07F80F00
1C07F00F00
1C03F00F00
1C03E00F00
1C01E00F00
1C00C00F00
1C00800F00
3C00000F00
3C00001F80
FF00007FC0
FF00007FE0
ENDCHAR
STARTCHAR 006E
ENCODING 110
SWIDTH 720 0
DWIDTH 32 0
BBX 31 32 0 0
BITMAP
FF0001FE
FF8001FE
1FC00078
0FE00038
0FF00038
0FF80038
0EF80038
0E7C0038
0E3E0038
0E1F0038
0E0F0038
0E078038
0E07C038
0E03E038
0E01F038
0E00F038
0E00F838
0E007C38
0E003C38
0E001E38
0E001F38
0E000F38
0E0007B8
0E0007F8
0E0003F8
0E0001F8
0E0001F8
0E0000F8
1E000078
1F000078
7FC00038
7FC00018
ENDCHAR
STARTCHAR 006F
ENCODING 111
SWIDTH 765 0
DWIDTH 34 0
BBX 31 34 2 -1
BITMAP
000FC000
007FF800
01FFFE00
07E01F80
0F8007C0
1F0003E0
1E0001F0
3C0000F0
7C0000F8
78000078
7800007C
F800007C
F000003C
F000003C
F000003C
F000003C
F000003E
F000003E
F000003E
F000003C
F000003C
F000003C
F800007C
7800007C
78000078
7C0000F8
3C0000F0
1E0001F0
1F0003E0
0F8007C0
07C00F80
01FFFF00
00FFFC00
001FE000
ENDCHAR
STARTCHAR 0070
ENCODING 112
SWIDTH 585 0
DWIDTH 26 0
BBX 24 32 2 0
BITMAP
FFFF80
FFFFF0
7F07FC
3E007E
3C003E
3C001F
3C001F
3C000F
3C000F
3C000F
3C000F
3C001F
3C001E
3C003E
3C007C
3C01F8
3C1FE0
3FFF80
3FFC00
3C0000
3C0000
3C0000
3C0000
3C0000
3C0000
3C0000
3C0000
3C0000
3C0000
7E0000
FF8000
FF8000
ENDCHAR
STARTCHAR 0071
ENCODING 113
SWIDTH 765 0
DWIDTH 34 0
BBX 31 39 2 -6
BITMAP
000FC000
007FF800
01FFFE00
07E01F80
0F8007C0
1F0003E0
1E0001E0
3C0000F0
7C0000F8
78000078
78000078
F800007C
F000003C
F000003C
F000003C
F000003C
F000003E
F000003E
F000003E
F000003C
F000003C
F000003C
F800007C
F800007C
78000078
7C0100F8
3C0380F0
3E0181F0
1F0183E0
0F8187C0
07C1DF80
01FFFE00
00FFFC00
001FF000
00007800
00003F00
00001FFC
000007FC
000001FC
ENDCHAR
STARTCHAR 0072
ENCODING 114
SWIDTH 630 0
DWIDTH 28 0
BBX 27 32 2 0
BITMAP
FFFFE000
FFFFF800
7F07FE00
3C007F00
3C001F00
3C000F00
3C000F00
3C000F80
3C000F00
3C000F00
3C001F00
3C003E00
3C007E00
3C01FC00
3C0FF000
3DFFC000
3FFFC000
3FE3C000
3C03E000
3C01F000
3C00F000
3C00F800
3C007800
3C003C00
3C003C00
3C001E00
3C001E00
3C001F00
3C000F00
7E001F80
FF803FC0
FF807FE0
ENDCHAR
STARTCHAR 0073
ENCODING 115
SWIDTH 562 0
DWIDTH 25 0
BBX 24 34 0 -1
BITMAP
003F00
01FFE0
07E7F8
0F00FC
1E003C
1C001C
3C000C
3C0004
3C0000
3C0000
3C0000
3E0000
3F0000
1FE000
0FFE00
07FFE0
03FFF8
007FFC
0003FE
00007F
00001F
00000F
000007
000007
400007
E00007
700007
70000F
78000E
3C001C
1F007C
0FFFF8
03FFE0
00FF00
ENDCHAR
STARTCHAR 0074
ENCODING 116
SWIDTH 585 0
DWIDTH 26 0
BBX 26 32 0 0
BITMAP
7FFFFF80
7FFFFFC0
FE3F1FC0
F01E03C0
E01E01C0
C01E00C0
001E0000
001E0000
001E0000
001E0000
001E0000
001E0000
001E0000
001E0000
001E0000
001E0000
001E0000
001E0000
001E0000
001E0000
001E0000
001E0000
001E0000
001E0000
001E0000
001E0000
001E0000
001E0000
001E0000
001F0000
007FC000
007FC000
ENDCHAR
STARTCHAR 0075
ENCODING 117
SWIDTH 697 0
DWIDTH 31 0
BBX 29 33 1 -1
BITMAP
FF8007F8
FF8007F8
3F0003E0
3E0001E0
3E0000E0
3E0000E0
3C0000E0
3C0000E0
3C0000E0
3C0000E0
3C0000E0
3C0000E0
3C0000E0
3C0000E0
3C0000E0
3C0000E0
3C0000E0
3C0000E0
3C0000E0
3C0000E0
3C0000E0
3C0000E0
3C0000E0
3C0000E0
1C0001E0
1E0001C0
1E0001C0
0F000380
0F800780
07E01F00
03FFFE00
00FFF800
003FC000
ENDCHAR
STARTCHAR 0076
ENCODING 118
SWIDTH 652 0
DWIDTH 29 0
BBX 29 33 0 -1
BITMAP
FF0007F8
FF0007F8
7E0001F0
7C0000F0
3C0000E0
3C0000E0
3C0001E0
1C0001C0
1E0001C0
1E0001C0
1E000380
0F000380
0F000380
0F000700
07800700
07800700
07800E00
03C00E00
03C01E00
03E01C00
01E01C00
01E03800
00F03800
00F07800
00787000
007CF000
003CE000
003FE000
001FC000
001F8000
000F8000
000F0000
00060000
ENDCHAR
STARTCHAR 0077
ENCODING 119
SWIDTH 922 0
DWIDTH 41 0
BBX 41 33 0 -1
BITMAP
FF807F807F80
FF807F807F80
7E003F001F00
3C001E000E00
3C001E000E00
3C001E000C00
3C001E000C00
1C003E001C00
1E003E001C00
1E003E001C00
1E003F001800
0E003F001800
0E007F003800
0F0077803800
0F0067803800
0700E7803000
0780E3C07000
0780C3C07000
0781C3C06000
0381C1E0E000
03C181E0E000
03C381E0E000
03C380F1C000
01E700F1C000
01E70079C000
01EF007B8000
00FE007F8000
00FE003F8000
00FE003F0000
007C001F0000
007C001E0000
0038000E0000
003000040000
ENDCHAR
STARTCHAR 0078
ENCODING 120
SWIDTH 652 0
DWIDTH 29 0
BBX 28 32 1 0
BITMAP
FF803FC0
FF003FC0
3E000F00
3E000F00
1E000E00
0F001C00
0F801C00
07803800
03C07000
03E07000
01F0E000
00F1C000
00FB8000
007F0000
003F0000
001F0000
001F8000
003FC000
007FC000
0073E000
00E1F000
01C0F800
01C07800
03803C00
07003E00
07001E00
0E000F00
1E000F80
1C000780
3C0007C0
FF000FF0
FF001FF0
ENDCHAR
STARTCHAR 0079
ENCODING 121
SWIDTH 652 0
DWIDTH 29 0
BBX 30 32 -1 0
BITMAP
FF8003FC
FF8003FC
3F0000F8
1F0000F0
0F0000E0
0F8000E0
078001C0
07C00180
03C00380
01E00700
01F00600
00F80E00
00781C00
007C3800
003E3800
001F7000
000FE000
000FC000
0007C000
0007C000
0003C000
0003C000
0003C000
0003C000
0003C000
0003C000
0003C000
0003C000
0007C000
0007C000
001FF000
001FF000
ENDCHAR
STARTCHAR 007A
ENCODING 122
SWIDTH 540 0
DWIDTH 24 0
BBX 23 32 1 0
BITMAP
3FFFFC
3FFFFC
3F007C
38007C
300078
2000F8
0000F0
0001E0
0003E0
0003C0
000780
000F80
001F00
001E00
003C00
007C00
00F800
00F000
01E000
03E000
07C000
078000
0F8000
1F0000
3E0000
3C0000
7C0006
78000E
F8003E
F807FC
FFFFFC
FFFFFC
ENDCHAR
STARTCHAR 007B
ENCODING 123
SWIDTH 495 0
DWIDTH 22 0
BBX 14 38 4 -5
BITMAP
003C
00F0
01C0
01C0
0380
0380
0380
0380
0380
0380
0380
0380
0380
0380
0380
0700
0700
0E00
F800
F000
1C00
0700
0700
0300
0380
0380
0380
0380
0380
0380
0380
0380
0380
0380
0380
01C0
01E0
007C
ENDCHAR
STARTCHAR 007C
ENCODING 124
SWIDTH 495 0
DWIDTH 22 0
BBX 2 44 10 -10
BITMAP
C0
C0
C0
C0
C0
C0
C0
C0
C0
C0
C0
C0
C0
C0
C0
C0
C0
C0
C0
C0
C0
C0
C0
C0
C0
C0
C0
C0
C0
C0
C0
C0
C0
C0
C0
C0
C0
C0
C0
C0
C0
C0
C0
C0
ENDCHAR
STARTCHAR 007D
ENCODING 125
SWIDTH 495 0
DWIDTH 22 0
BBX 14 38 4 -5
BITMAP
F000
3C00
0E00
0700
0700
0700
0700
0700
0700
0700
0700
0700
0700
0700
0300
0380
0380
01C0
007C
003C
00E0
01C0
0380
0380
0700
0700
0700
0700
0700
0700
0700
0700
0700
0700
0700
0E00
1E00
F800
ENDCHAR
STARTCHAR 007E
ENCODING 126
SWIDTH 832 0
DWIDTH 37 0
BBX 29 6 4 10
BITMAP
07F00008
1FFE0038
7FFFC0F8
F007FFE0
C000FFC0
80000400
ENDCHAR
STARTCHAR 0080
ENCODING 128
SWIDTH 652 0
DWIDTH 29 0
BBX 29 43 0 0
BITMAP
00600000
00700000
00780000
003C0000
000E0000
00070000
00018000
00004000
00000000
00000000
00020000
00070000
000F8000
000F8000
001FC000
001FC000
0039E000
0039E000
0071F000
0070F000
0070F800
00E07800
00E07800
01C03C00
01C03C00
03803E00
03801E00
03801E00
07000F00
07FFFF00
07FFFF80
0FFFFF80
0E000780
1E0007C0
1C0003C0
1C0003C0
3C0003C0
380001E0
380001E0
780001F0
7C0003F0
FE0007F8
FE0007F8
ENDCHAR
STARTCHAR 0081
ENCODING 129
SWIDTH 652 0
DWIDTH 29 0
BBX 29 45 0 0
BITMAP
00078000
0008C000
00084000
00004000
00004000
0000C000
00038000
00020000
00040000
00000000
00000000
00000000
00020000
00070000
000F8000
000F8000
001FC000
001FC000
0039E000
0039E000
0071F000
0070F000
0070F800
00E07800
00E07800
01C03C00
01C03C00
03803E00
03801E00
03801E00
07000F00
07FFFF00
07FFFF80
0FFFFF80
0E000780
1E0007C0
1C0003C0
1C0003C0
3C0003C0
380001E0
380001E0
780001F0
7C0003F0
FE0007F8
FE0007F8
ENDCHAR
STARTCHAR 008D
ENCODING 141
SWIDTH 652 0
DWIDTH 29 0
BBX 29 49 0 0
BITMAP
00000C00
00001E00
00003E00
00007C00
0000F000
0001C000
00038000
00060000
00801000
00C02000
00606000
007FE000
003FC000
000F0000
00000000
00000000
00020000
00070000
000F8000
000F8000
001FC000
001FC000
0039E000
0039E000
0071F000
0070F000
0070F800
00E07800
00E07800
01C03C00
01C03C00
03803E00
03801E00
03801E00
07000F00
07FFFF00
07FFFF80
0FFFFF80
0E000780
1E0007C0
1C0003C0
1C0003C0
3C0003C0
380001E0
380001E0
780001F0
7C0003F0
FE0007F8
FE0007F8
ENDCHAR
STARTCHAR 008E
ENCODING 142
SWIDTH 652 0
DWIDTH 29 0
BBX 29 49 0 0
BITMAP
03000000
07800000
03C00000
01E00000
00700000
00380000
000C0000
00020000
00801000
00C02000
00606000
007FE000
003FC000
000F0000
00000000
00000000
00020000
00070000
000F8000
000F8000
001FC000
001FC000
0039E000
0039E000
0071F000
0070F000
0070F800
00E07800
00E07800
01C03C00
01C03C00
03803E00
03801E00
03801E00
07000F00
07FFFF00
07FFFF80
0FFFFF80
0E000780
1E0007C0
1C0003C0
1C0003C0
3C0003C0
380001E0
380001E0
780001F0
7C0003F0
FE0007F8
FE0007F8
ENDCHAR
STARTCHAR 008F
ENCODING 143
SWIDTH 652 0
DWIDTH 29 0
BBX 29 51 0 0
BITMAP
00020000
000C8000
00184000
00004000
00004000
0000C000
00018000
00030000
00040000
00040000
00801000
00C02000
00606000
007FE000
003FC000
000F0000
00000000
00000000
00020000
00070000
000F8000
000F8000
001FC000
001FC000
0039E000
0039E000
0071F000
0070F000
0070F800
00E07800
00E07800
01C03C00
01C03C00
03803E00
03801E00
03801E00
07000F00
07FFFF00
07FFFF80
0FFFFF80
0E000780
1E0007C0
1C0003C0
1C0003C0
3C0003C0
380001E0
380001E0
780001F0
7C0003F0
FE0007F8
FE0007F8
ENDCHAR
STARTCHAR 0090
ENCODING 144
SWIDTH 607 0
DWIDTH 27 0
BBX 27 48 2 0
BITMAP
000001C0
000003E0
000007C0
00000F00
00001E00
001C1800
003E3000
003E4000
00770000
00E38000
00C18000
0180C000
03006000
00000000
00000000
00000000
FFFFFE00
FFFFFE00
7F01FE00
3C000E00
3C000600
3C000000
3C000000
3C000000
3C000000
3C000000
3C000000
3C000000
3C003000
3FFFF000
3FFFF000
3FFFF000
3C003000
3C000000
3C000000
3C000000
3C000000
3C000000
3C000000
3C000000
3C000000
3C000000
3C000180
3C000380
3C000F80
7FFFFF80
FFFFFF00
FFFFFF00
ENDCHAR
STARTCHAR 009D
ENCODING 157
SWIDTH 765 0
DWIDTH 34 0
BBX 31 47 2 -1
BITMAP
00000400
00001E00
00003E00
00007C00
0000F000
0001E000
000381E0
00020118
00040008
00000008
00000018
00000030
000000E0
000FC100
007FF900
01FFFE00
07E01F80
0F8007C0
1F0003E0
1E0001F0
3C0000F0
7C0000F8
78000078
7800007C
F800007C
F000003C
F000003C
F000003C
F000003C
F000003E
F000003E
F000003E
F000003C
F000003C
F000003C
F800007C
7800007C
78000078
7C0000F8
3C0000F0
1E0001F0
1F0003E0
0F8007C0
07C00F80
01FFFF00
00FFFC00
001FE000
ENDCHAR
STARTCHAR 009E
ENCODING 158
SWIDTH 765 0
DWIDTH 34 0
BBX 31 47 2 -1
BITMAP
00600000
00F00000
00780000
003C0000
001E0000
00070000
000181E0
0000C118
00000008
00000008
00000018
00000030
000000E0
000FC100
007FF900
01FFFE00
07E01F80
0F8007C0
1F0003E0
1E0001F0
3C0000F0
7C0000F8
78000078
7800007C
F800007C
F000003C
F000003C
F000003C
F000003C
F000003E
F000003E
F000003E
F000003C
F000003C
F000003C
F800007C
7800007C
78000078
7C0000F8
3C0000F0
1E0001F0
1F0003E0
0F8007C0
07C00F80
01FFFF00
00FFFC00
001FE000
ENDCHAR
STARTCHAR 00A0
ENCODING 160
SWIDTH 540 0
DWIDTH 24 0
BBX 0 0 0 0
BITMAP
ENDCHAR
STARTCHAR 00A1
ENCODING 161
SWIDTH 652 0
DWIDTH 29 0
BBX 29 49 0 0
BITMAP
00000C00
00001E00
00003E00
00007C00
0000F000
0001C000
00038000
00060000
00801000
00C02000
00606000
007FE000
003FC000
000F0000
00000000
00000000
00020000
00070000
000F8000
000F8000
001FC000
001FC000
0039E000
0039E000
0071F000
0070F000
0070F800
00E07800
00E07800
01C03C00
01C03C00
03803E00
03801E00
03801E00
07000F00
07FFFF00
07FFFF80
0FFFFF80
0E000780
1E0007C0
1C0003C0
1C0003C0
3C0003C0
380001E0
380001E0
780001F0
7C0003F0
FE0007F8
FE0007F8
ENDCHAR
STARTCHAR 00A2
ENCODING 162
SWIDTH 652 0
DWIDTH 29 0
BBX 29 49 0 0
BITMAP
03000000
07800000
03C00000
01E00000
00700000
00380000
000C0000
00020000
00801000
00C02000
00606000
007FE000
003FC000
000F0000
00000000
00000000
00020000
00070000
000F8000
000F8000
001FC000
001FC000
0039E000
0039E000
0071F000
0070F000
0070F800
00E07800
00E07800
01C03C00
01C03C00
03803E00
03801E00
03801E00
07000F00
07FFFF00
07FFFF80
0FFFFF80
0E000780
1E0007C0
1C0003C0
1C0003C0
3C0003C0
380001E0
380001E0
780001F0
7C0003F0
FE0007F8
FE0007F8
ENDCHAR
STARTCHAR 00A3
ENCODING 163
SWIDTH 652 0
DWIDTH 29 0
BBX 29 51 0 0
BITMAP
00020000
000C8000
00184000
00004000
00004000
0000C000
00018000
00030000
00040000
00040000
00801000
00C02000
00606000
007FE000
003FC000
000F0000
00000000
00000000
00020000
00070000
000F8000
000F8000
001FC000
001FC000
0039E000
0039E000
0071F000
0070F000
0070F800
00E07800
00E07800
01C03C00
01C03C00
03803E00
03801E00
03801E00
07000F00
07FFFF00
07FFFF80
0FFFFF80
0E000780
1E0007C0
1C0003C0
1C0003C0
3C0003C0
380001E0
380001E0
780001F0
7C0003F0
FE0007F8
FE0007F8
ENDCHAR
STARTCHAR 00A4
ENCODING 164
SWIDTH 652 0
DWIDTH 29 0
BBX 29 49 0 0
BITMAP
00000800
001C1800
003FF000
007FF000
0043C000
00C00000
00000000
00000000
00801000
00C02000
00606000
007FE000
003FC000
000F0000
00000000
00000000
00020000
00070000
000F8000
000F8000
001FC000
001FC000
0039E000
0039E000
0071F000
0070F000
0070F800
00E07800
00E07800
01C03C00
01C03C00
03803E00
03801E00
03801E00
07000F00
07FFFF00
07FFFF80
0FFFFF80
0E000780
1E0007C0
1C0003C0
1C0003C0
3C0003C0
380001E0
380001E0
780001F0
7C0003F0
FE0007F8
FE0007F8
ENDCHAR
STARTCHAR 00A5
ENCODING 165
SWIDTH 652 0
DWIDTH 29 0
BBX 29 48 0 -7
BITMAP
00801000
00C02000
00606000
007FE000
003FC000
000F0000
00000000
00000000
00020000
00070000
000F8000
000F8000
001FC000
001FC000
0039E000
0039E000
0071F000
0070F000
0070F800
00E07800
00E07800
01C03C00
01C03C00
03803E00
03801E00
03801E00
07000F00
07FFFF00
07FFFF80
0FFFFF80
0E000780
1E0007C0
1C0003C0
1C0003C0
3C0003C0
380001E0
380001E0
780001F0
7C0003F0
FE0007F8
FE0007F8
00000000
00000000
000E0000
001E0000
001F0000
001E0000
000E0000
ENDCHAR
STARTCHAR 00A6
ENCODING 166
SWIDTH 765 0
DWIDTH 34 0
BBX 31 49 2 -1
BITMAP
000C0800
003FF800
003FF000
0063E000
00400000
00000000
00000000
00000000
000001E0
00000118
00000008
00000008
00000018
00000030
000000E0
000FC100
007FF900
01FFFE00
07E01F80
0F8007C0
1F0003E0
1E0001F0
3C0000F0
7C0000F8
78000078
7800007C
F800007C
F000003C
F000003C
F000003C
F000003C
F000003E
F000003E
F000003E
F000003C
F000003C
F000003C
F800007C
7800007C
78000078
7C0000F8
3C0000F0
1E0001F0
1F0003E0
0F8007C0
07C00F80
01FFFF00
00FFFC00
001FE000
ENDCHAR
STARTCHAR 00A7
ENCODING 167
SWIDTH 765 0
DWIDTH 34 0
BBX 31 47 2 -1
BITMAP
00000400
00001E00
00003E00
00007C00
0000F000
0001E000
000381E0
00020118
00040008
00000008
00000018
00000030
000000E0
000FC100
007FF900
01FFFE00
07E01F80
0F8007C0
1F0003E0
1E0001F0
3C0000F0
7C0000F8
78000078
7800007C
F800007C
F000003C
F000003C
F000003C
F000003C
F000003E
F000003E
F000003E
F000003C
F000003C
F000003C
F800007C
7800007C
78000078
7C0000F8
3C0000F0
1E0001F0
1F0003E0
0F8007C0
07C00F80
01FFFF00
00FFFC00
001FE000
ENDCHAR
STARTCHAR 00A8
ENCODING 168
SWIDTH 697 0
DWIDTH 31 0
BBX 29 44 1 -1
BITMAP
00700000
00780000
007C0000
001E0000
000F0000
00038000
0000C000
00006000
00000000
00000000
00000000
FF8007F8
FF8007F8
3F0003E0
3E0001E0
3E0000E0
3E0000E0
3C0000E0
3C0000E0
3C0000E0
3C0000E0
3C0000E0
3C0000E0
3C0000E0
3C0000E0
3C0000E0
3C0000E0
3C0000E0
3C0000E0
3C0000E0
3C0000E0
3C0000E0
3C0000E0
3C0000E0
3C0000E0
1C0001E0
1E0001C0
1E0001C0
0F000380
0F800780
07E01F00
03FFFE00
00FFF800
003FC000
ENDCHAR
STARTCHAR 00A9
ENCODING 169
SWIDTH 765 0
DWIDTH 34 0
BBX 31 47 2 -1
BITMAP
00600000
00F00000
00780000
003C0000
001E0000
00070000
000181E0
0000C118
00000008
00000008
00000018
00000030
000000E0
000FC100
007FF900
01FFFE00
07E01F80
0F8007C0
1F0003E0
1E0001F0
3C0000F0
7C0000F8
78000078
7800007C
F800007C
F000003C
F000003C
F000003C
F000003C
F000003E
F000003E
F000003E
F000003C
F000003C
F000003C
F800007C
7800007C
78000078
7C0000F8
3C0000F0
1E0001F0
1F0003E0
0F8007C0
07C00F80
01FFFF00
00FFFC00
001FE000
ENDCHAR
STARTCHAR 00AA
ENCODING 170
SWIDTH 765 0
DWIDTH 34 0
BBX 31 49 2 -1
BITMAP
0003C000
00046000
00042000
00002000
00002000
00006000
0000C000
00018000
000201E0
00020118
00000008
00000008
00000018
00000030
000000E0
000FC100
007FF900
01FFFE00
07E01F80
0F8007C0
1F0003E0
1E0001F0
3C0000F0
7C0000F8
78000078
7800007C
F800007C
F000003C
F000003C
F000003C
F000003C
F000003E
F000003E
F000003E
F000003C
F000003C
F000003C
F800007C
7800007C
78000078
7C0000F8
3C0000F0
1E0001F0
1F0003E0
0F8007C0
07C00F80
01FFFF00
00FFFC00
001FE000
ENDCHAR
STARTCHAR 00AB
ENCODING 171
SWIDTH 765 0
DWIDTH 34 0
BBX 31 49 2 -1
BITMAP
000C0800
003FF800
003FF000
0063E000
00400000
00000000
00000000
00000000
000001E0
00000118
00000008
00000008
00000018
00000030
000000E0
000FC100
007FF900
01FFFE00
07E01F80
0F8007C0
1F0003E0
1E0001F0
3C0000F0
7C0000F8
78000078
7800007C
F800007C
F000003C
F000003C
F000003C
F000003C
F000003E
F000003E
F000003E
F000003C
F000003C
F000003C
F800007C
7800007C
78000078
7C0000F8
3C0000F0
1E0001F0
1F0003E0
0F8007C0
07C00F80
01FFFF00
00FFFC00
001FE000
ENDCHAR
STARTCHAR 00AC
ENCODING 172
SWIDTH 697 0
DWIDTH 31 0
BBX 29 42 1 -1
BITMAP
00000200
000FEE00
000FFC00
0019F800
00100000
00000000
00000000
00000000
00000000
FF8007F8
FF8007F8
3F0003E0
3E0001E0
3E0000E0
3E0000E0
3C0000E0
3C0000E0
3C0000E0
3C0000E0
3C0000E0
3C0000E0
3C0000E0
3C0000E0
3C0000E0
3C0000E0
3C0000E0
3C0000E0
3C0000E0
3C0000E0
3C0000E0
3C0000E0
3C0000E0
3C0000E0
1C0001E0
1E0001C0
1E0001C0
0F000380
0F800780
07E01F00
03FFFE00
00FFF800
003FC000
ENDCHAR
STARTCHAR 00AD
ENCODING 173
SWIDTH 697 0
DWIDTH 31 0
BBX 32 47 1 -1
BITMAP
00000E00
00001E00
00003E00
00003C00
00007000
0000E000
0001803E
00020023
00000001
00000001
00000003
00000003
0000001E
00000030
FF8007F8
FF8007F8
3F0003E0
3E0001E0
3E0000E0
3E0000E0
3C0000E0
3C0000E0
3C0000E0
3C0000E0
3C0000E0
3C0000E0
3C0000E0
3C0000E0
3C0000E0
3C0000E0
3C0000E0
3C0000E0
3C0000E0
3C0000E0
3C0000E0
3C0000E0
3C0000E0
3C0000E0
1C0001E0
1E0001C0
1E0001C0
0F000380
0F800780
07E01F00
03FFFE00
00FFF800
003FC000
ENDCHAR
STARTCHAR 00AE
ENCODING 174
SWIDTH 765 0
DWIDTH 34 0
BBX 31 48 2 -8
BITMAP
000001E0
00000118
00000008
00000008
00000018
00000030
000000E0
000FC100
007FF900
01FFFE00
07E01F80
0F8007C0
1F0003E0
1E0001F0
3C0000F0
7C0000F8
78000078
7800007C
F800007C
F000003C
F000003C
F000003C
F000003C
F000003E
F000003E
F000003E
F000003C
F000003C
F000003C
F800007C
7800007C
78000078
7C0000F8
3C0000F0
1E0001F0
1F0003E0
0F8007C0
07C00F80
01FFFF00
00FFFC00
001FE000
00000000
00000000
00038000
0007C000
0007C000
00078000
00030000
ENDCHAR
STARTCHAR 00AF
ENCODING 175
SWIDTH 697 0
DWIDTH 31 0
BBX 32 46 1 -1
BITMAP
00700000
00780000
007C0000
001E0000
000F0000
0003803E
0000C023
00000001
00000001
00000003
00000003
0000001E
00000030
FF8007F8
FF8007F8
3F0003E0
3E0001E0
3E0000E0
3E0000E0
3C0000E0
3C0000E0
3C0000E0
3C0000E0
3C0000E0
3C0000E0
3C0000E0
3C0000E0
3C0000E0
3C0000E0
3C0000E0
3C0000E0
3C0000E0
3C0000E0
3C0000E0
3C0000E0
3C0000E0
3C0000E0
1C0001E0
1E0001C0
1E0001C0
0F000380
0F800780
07E01F00
03FFFE00
00FFF800
003FC000
ENDCHAR
STARTCHAR 00B0
ENCODING 176
SWIDTH 765 0
DWIDTH 34 0
BBX 31 51 2 -1
BITMAP
00000300
00000CC0
00000840
00000060
00000060
00000040
000001C0
00038300
00078200
000FC200
000FE000
001CE000
00383000
00201800
00400800
00000000
00000000
000FC000
007FF800
01FFFE00
07E01F80
0F8007C0
1F0003E0
1E0001F0
3C0000F0
7C0000F8
78000078
7800007C
F800007C
F000003C
F000003C
F000003C
F000003C
F000003E
F000003E
F000003E
F000003C
F000003C
F000003C
F800007C
7800007C
78000078
7C0000F8
3C0000F0
1E0001F0
1F0003E0
0F8007C0
07C00F80
01FFFF00
00FFFC00
001FE000
ENDCHAR
STARTCHAR 00B1
ENCODING 177
SWIDTH 697 0
DWIDTH 31 0
BBX 32 47 1 -1
BITMAP
0001E000
00023000
00061000
00001000
00001000
00003000
0000E03E
00008023
00010001
00000001
00000003
00000003
0000001E
00000030
FF8007F8
FF8007F8
3F0003E0
3E0001E0
3E0000E0
3E0000E0
3C0000E0
3C0000E0
3C0000E0
3C0000E0
3C0000E0
3C0000E0
3C0000E0
3C0000E0
3C0000E0
3C0000E0
3C0000E0
3C0000E0
3C0000E0
3C0000E0
3C0000E0
3C0000E0
3C0000E0
3C0000E0
1C0001E0
1E0001C0
1E0001C0
0F000380
0F800780
07E01F00
03FFFE00
00FFF800
003FC000
ENDCHAR
STARTCHAR 00B2
ENCODING 178
SWIDTH 652 0
DWIDTH 29 0
BBX 30 43 -1 0
BITMAP
00600000
00F00000
00F80000
007C0000
001E0000
00070000
00038000
0000C000
00000000
00000000
00000000
FF8003FC
FF8003FC
3F0000F8
1F0000F0
0F0000E0
0F8000E0
078001C0
07C00180
03C00380
01E00700
01F00600
00F80E00
00781C00
007C3800
003E3800
001F7000
000FE000
000FC000
0007C000
0007C000
0003C000
0003C000
0003C000
0003C000
0003C000
0003C000
0003C000
0003C000
0007C000
0007C000
001FF000
001FF000
ENDCHAR
STARTCHAR 00B3
ENCODING 179
SWIDTH 652 0
DWIDTH 29 0
BBX 30 42 -1 0
BITMAP
00000200
00038200
000FFE00
000FFC00
00187800
00100000
00000000
00000000
00000000
00000000
FF8003FC
FF8003FC
3F0000F8
1F0000F0
0F0000E0
0F8000E0
078001C0
07C00180
03C00380
01E00700
01F00600
00F80E00
00781C00
007C3800
003E3800
001F7000
000FE000
000FC000
0007C000
0007C000
0003C000
0003C000
0003C000
0003C000
0003C000
0003C000
0003C000
0003C000
0007C000
0007C000
001FF000
001FF000
ENDCHAR
STARTCHAR 00B4
ENCODING 180
SWIDTH 270 0
DWIDTH 12 0
BBX 10 43 2 0
BITMAP
01C0
03C0
07C0
0F80
1E00
3800
3000
4000
0000
0000
0000
FF80
FF00
7E00
3C00
3C00
3C00
3C00
3C00
3C00
3C00
3C00
3C00
3C00
3C00
3C00
3C00
3C00
3C00
3C00
3C00
3C00
3C00
3C00
3C00
3C00
3C00
3C00
3C00
3C00
7E00
FF00
FF80
ENDCHAR
STARTCHAR 00B5
ENCODING 181
SWIDTH 270 0
DWIDTH 12 0
BBX 11 43 0 0
BITMAP
E000
F000
F800
3C00
1E00
0700
0380
00C0
0000
0000
0000
3FE0
3FC0
1F80
0F00
0F00
0F00
0F00
0F00
0F00
0F00
0F00
0F00
0F00
0F00
0F00
0F00
0F00
0F00
0F00
0F00
0F00
0F00
0F00
0F00
0F00
0F00
0F00
0F00
0F00
1F80
3FC0
3FE0
ENDCHAR
STARTCHAR 00B6
ENCODING 182
SWIDTH 765 0
DWIDTH 34 0
BBX 31 51 2 -8
BITMAP
00038000
00078000
000FC000
000FE000
001CE000
00383000
00201800
00400800
00000000
00000000
000FC000
007FF800
01FFFE00
07E01F80
0F8007C0
1F0003E0
1E0001F0
3C0000F0
7C0000F8
78000078
7800007C
F800007C
F000003C
F000003C
F000003C
F000003C
F000003E
F000003E
F000003E
F000003C
F000003C
F000003C
F800007C
7800007C
78000078
7C0000F8
3C0000F0
1E0001F0
1F0003E0
0F8007C0
07C00F80
01FFFF00
00FFFC00
001FE000
00000000
00000000
00038000
0007C000
0007C000
00078000
00030000
ENDCHAR
STARTCHAR 00B8
ENCODING 184
SWIDTH 270 0
DWIDTH 12 0
BBX 12 41 0 0
BITMAP
0010
3C30
7FE0
FFC0
8300
8000
0000
0000
0000
3FE0
3FC0
1F80
0F00
0F00
0F00
0F00
0F00
0F00
0F00
0F00
0F00
0F00
0F00
0F00
0F00
0F00
0F00
0F00
0F00
0F00
0F00
0F00
0F00
0F00
0F00
0F00
0F00
0F00
1F80
3FC0
3FE0
ENDCHAR
STARTCHAR 00B9
ENCODING 185
SWIDTH 765 0
DWIDTH 34 0
BBX 31 44 2 -1
BITMAP
00003800
00007800
0000F800
0001F000
0003C000
00070000
000E0000
00080000
00000000
00000000
000FC000
007FF800
01FFFE00
07E01F80
0F8007C0
1F0003E0
1E0001F0
3C0000F0
7C0000F8
78000078
7800007C
F800007C
F000003C
F000003C
F000003C
F000003C
F000003E
F000003E
F000003E
F000003C
F000003C
F000003C
F800007C
7800007C
78000078
7C0000F8
3C0000F0
1E0001F0
1F0003E0
0F8007C0
07C00F80
01FFFF00
00FFFC00
001FE000
ENDCHAR
STARTCHAR 00BA
ENCODING 186
SWIDTH 697 0
DWIDTH 31 0
BBX 32 47 1 -1
BITMAP
0001E000
00023000
00061000
00001000
00001000
00003000
0000E03E
00008023
00010001
00000001
00000003
00000003
0000001E
00000030
FF8007F8
FF8007F8
3F0003E0
3E0001E0
3E0000E0
3E0000E0
3C0000E0
3C0000E0
3C0000E0
3C0000E0
3C0000E0
3C0000E0
3C0000E0
3C0000E0
3C0000E0
3C0000E0
3C0000E0
3C0000E0
3C0000E0
3C0000E0
3C0000E0
3C0000E0
3C0000E0
3C0000E0
1C0001E0
1E0001C0
1E0001C0
0F000380
0F800780
07E01F00
03FFFE00
00FFF800
003FC000
ENDCHAR
STARTCHAR 00BB
ENCODING 187
SWIDTH 697 0
DWIDTH 31 0
BBX 32 50 1 -1
BITMAP
00000400
000F8C00
001FFC00
001FF800
00300000
00000000
00000000
00000000
00000000
0000003E
00000023
00000001
00000001
00000003
00000003
0000001E
00000030
FF8007F8
FF8007F8
3F0003E0
3E0001E0
3E0000E0
3E0000E0
3C0000E0
3C0000E0
3C0000E0
3C0000E0
3C0000E0
3C0000E0
3C0000E0
3C0000E0
3C0000E0
3C0000E0
3C0000E0
3C0000E0
3C0000E0
3C0000E0
3C0000E0
3C0000E0
3C0000E0
3C0000E0
1C0001E0
1E0001C0
1E0001C0
0F000380
0F800780
07E01F00
03FFFE00
00FFF800
003FC000
ENDCHAR
STARTCHAR 00BC
ENCODING 188
SWIDTH 765 0
DWIDTH 34 0
BBX 31 44 2 -1
BITMAP
00700000
00780000
007C0000
001E0000
000F0000
00038000
0001C000
00006000
00000000
00000000
000FC000
007FF800
01FFFE00
07E01F80
0F8007C0
1F0003E0
1E0001F0
3C0000F0
7C0000F8
78000078
7800007C
F800007C
F000003C
F000003C
F000003C
F000003C
F000003E
F000003E
F000003E
F000003C
F000003C
F000003C
F800007C
7800007C
78000078
7C0000F8
3C0000F0
1E0001F0
1F0003E0
0F8007C0
07C00F80
01FFFF00
00FFFC00
001FE000
ENDCHAR
STARTCHAR 00BD
ENCODING 189
SWIDTH 765 0
DWIDTH 34 0
BBX 31 46 2 -1
BITMAP
0003C000
00046000
00042000
00002000
00002000
00006000
0000C000
00010000
00020000
00020000
00000000
00000000
000FC000
007FF800
01FFFE00
07E01F80
0F8007C0
1F0003E0
1E0001F0
3C0000F0
7C0000F8
78000078
7800007C
F800007C
F000003C
F000003C
F000003C
F000003C
F000003E
F000003E
F000003E
F000003C
F000003C
F000003C
F800007C
7800007C
78000078
7C0000F8
3C0000F0
1E0001F0
1F0003E0
0F8007C0
07C00F80
01FFFF00
00FFFC00
001FE000
ENDCHAR
STARTCHAR 00BE
ENCODING 190
SWIDTH 765 0
DWIDTH 34 0
BBX 31 43 2 -1
BITMAP
00000800
001E0800
003FF800
003FF000
0061C000
00400000
00000000
00000000
00000000
000FC000
007FF800
01FFFE00
07E01F80
0F8007C0
1F0003E0
1E0001F0
3C0000F0
7C0000F8
78000078
7800007C
F800007C
F000003C
F000003C
F000003C
F000003C
F000003E
F000003E
F000003E
F000003C
F000003C
F000003C
F800007C
7800007C
78000078
7C0000F8
3C0000F0
1E0001F0
1F0003E0
0F8007C0
07C00F80
01FFFF00
00FFFC00
001FE000
ENDCHAR
STARTCHAR 00BF
ENCODING 191
SWIDTH 697 0
DWIDTH 31 0
BBX 32 47 1 -7
BITMAP
0000003E
00000023
00000001
00000001
00000003
00000003
0000001E
00000030
FF8007F8
FF8007F8
3F0003E0
3E0001E0
3E0000E0
3E0000E0
3C0000E0
3C0000E0
3C0000E0
3C0000E0
3C0000E0
3C0000E0
3C0000E0
3C0000E0
3C0000E0
3C0000E0
3C0000E0
3C0000E0
3C0000E0
3C0000E0
3C0000E0
3C0000E0
3C0000E0
3C0000E0
1C0001E0
1E0001C0
1E0001C0
0F000380
0F800780
07E01F00
03FFFE00
00FFF800
003FC000
00000000
00000000
00070000
000F8000
000F8000
00070000
ENDCHAR
STARTCHAR 00C0
ENCODING 192
SWIDTH 652 0
DWIDTH 29 0
BBX 29 48 0 0
BITMAP
70000000
78000000
7C000000
3C000000
0E000000
03070000
018F8000
004F8000
001DC000
0018E000
00306000
00603000
00401800
00000000
00000000
00020000
00070000
000F8000
000F8000
001FC000
001FC000
0039E000
0039E000
0071F000
0070F000
0070F800
00E07800
00E07800
01C03C00
01C03C00
03803E00
03801E00
03801E00
07000F00
07FFFF00
07FFFF80
0FFFFF80
0E000780
1E0007C0
1C0003C0
1C0003C0
3C0003C0
380001E0
380001E0
780001F0
7C0003F0
FE0007F8
FE0007F8
ENDCHAR
STARTCHAR 00C1
ENCODING 193
SWIDTH 652 0
DWIDTH 29 0
BBX 29 43 0 0
BITMAP
00003000
00007800
0000F000
0001E000
0003C000
00070000
000C0000
00180000
00000000
00000000
00020000
00070000
000F8000
000F8000
001FC000
001FC000
0039E000
0039E000
0071F000
0070F000
0070F800
00E07800
00E07800
01C03C00
01C03C00
03803E00
03801E00
03801E00
07000F00
07FFFF00
07FFFF80
0FFFFF80
0E000780
1E0007C0
1C0003C0
1C0003C0
3C0003C0
380001E0
380001E0
780001F0
7C0003F0
FE0007F8
FE0007F8
ENDCHAR
STARTCHAR 00C2
ENCODING 194
SWIDTH 652 0
DWIDTH 29 0
BBX 29 43 0 0
BITMAP
00070000
000F8000
000F8000
001DC000
0018E000
00306000
00603000
00401800
00000000
00000000
00020000
00070000
000F8000
000F8000
001FC000
001FC000
0039E000
0039E000
0071F000
0070F000
0070F800
00E07800
00E07800
01C03C00
01C03C00
03803E00
03801E00
03801E00
07000F00
07FFFF00
07FFFF80
0FFFFF80
0E000780
1E0007C0
1C0003C0
1C0003C0
3C0003C0
380001E0
380001E0
780001F0
7C0003F0
FE0007F8
FE0007F8
ENDCHAR
STARTCHAR 00C3
ENCODING 195
SWIDTH 652 0
DWIDTH 29 0
BBX 29 48 0 0
BITMAP
00000038
00000078
000000F8
000001F0
000001C0
00070380
000F8600
000F8800
001DC000
0018E000
00306000
00603000
00401800
00000000
00000000
00020000
00070000
000F8000
000F8000
001FC000
001FC000
0039E000
0039E000
0071F000
0070F000
0070F800
00E07800
00E07800
01C03C00
01C03C00
03803E00
03801E00
03801E00
07000F00
07FFFF00
07FFFF80
0FFFFF80
0E000780
1E0007C0
1C0003C0
1C0003C0
3C0003C0
380001E0
380001E0
780001F0
7C0003F0
FE0007F8
FE0007F8
ENDCHAR
STARTCHAR 00C4
ENCODING 196
SWIDTH 652 0
DWIDTH 29 0
BBX 29 50 0 0
BITMAP
00001F00
00003180
00003080
00000080
00000180
00000100
00000700
00070C00
000F8800
000F8000
001DC000
0018E000
00306000
00603000
00401800
00000000
00000000
00020000
00070000
000F8000
000F8000
001FC000
001FC000
0039E000
0039E000
0071F000
0070F000
0070F800
00E07800
00E07800
01C03C00
01C03C00
03803E00
03801E00
03801E00
07000F00
07FFFF00
07FFFF80
0FFFFF80
0E000780
1E0007C0
1C0003C0
1C0003C0
3C0003C0
380001E0
380001E0
780001F0
7C0003F0
FE0007F8
FE0007F8
ENDCHAR
STARTCHAR 00C5
ENCODING 197
SWIDTH 652 0
DWIDTH 29 0
BBX 29 49 0 0
BITMAP
00000800
001C1800
003FF000
007FF000
0043C000
00C00000
00070000
000F8000
000F8000
001DC000
0018E000
00306000
00603000
00401800
00000000
00000000
00020000
00070000
000F8000
000F8000
001FC000
001FC000
0039E000
0039E000
0071F000
0070F000
0070F800
00E07800
00E07800
01C03C00
01C03C00
03803E00
03801E00
03801E00
07000F00
07FFFF00
07FFFF80
0FFFFF80
0E000780
1E0007C0
1C0003C0
1C0003C0
3C0003C0
380001E0
380001E0
780001F0
7C0003F0
FE0007F8
FE0007F8
ENDCHAR
STARTCHAR 00C6
ENCODING 198
SWIDTH 652 0
DWIDTH 29 0
BBX 29 50 0 -7
BITMAP
00070000
000F8000
000F8000
001DC000
0018E000
00306000
00603000
00401800
00000000
00000000
00020000
00070000
000F8000
000F8000
001FC000
001FC000
0039E000
0039E000
0071F000
0070F000
0070F800
00E07800
00E07800
01C03C00
01C03C00
03803E00
03801E00
03801E00
07000F00
07FFFF00
07FFFF80
0FFFFF80
0E000780
1E0007C0
1C0003C0
1C0003C0
3C0003C0
380001E0
380001E0
780001F0
7C0003F0
FE0007F8
FE0007F8
00000000
00000000
000E0000
001E0000
001F0000
001E0000
000E0000
ENDCHAR
STARTCHAR 00C7
ENCODING 199
SWIDTH 720 0
DWIDTH 32 0
BBX 31 32 0 0
BITMAP
3FFFE000
3FFFFC00
1FC0FF00
0F800F80
0F0007C0
0F0001E0
0F0001F0
0F0000F8
0F000078
0F00007C
0F00003C
0F00003C
0F00003E
7FFF003E
FFFF803E
0F00003E
0F00003E
0F00003E
0F00003E
0F00003E
0F00003C
0F00007C
0F00007C
0F000078
0F0000F8
0F0001F0
0F0003E0
0F0007C0
0F801F80
1FC0FF00
3FFFFC00
3FFFC000
ENDCHAR
STARTCHAR 00C8
ENCODING 200
SWIDTH 607 0
DWIDTH 27 0
BBX 25 45 2 0
BITMAP
001E0000
00230000
00210000
00010000
00010000
00030000
000E0000
00080000
00100000
00000000
00000000
00000000
00000000
FFFFFE00
FFFFFE00
7F01FE00
3C000E00
3C000600
3C000000
3C000000
3C000000
3C000000
3C000000
3C000000
3C000000
3C003000
3FFFF000
3FFFF000
3FFFF000
3C003000
3C000000
3C000000
3C000000
3C000000
3C000000
3C000000
3C000000
3C000000
3C000000
3C000180
3C000380
3C000F80
7FFFFF80
FFFFFF00
FFFFFF00
ENDCHAR
STARTCHAR 00C9
ENCODING 201
SWIDTH 607 0
DWIDTH 27 0
BBX 25 43 2 0
BITMAP
0000C000
0001E000
0003C000
00078000
000E0000
001C0000
00300000
00600000
00000000
00000000
00000000
FFFFFE00
FFFFFE00
7F01FE00
3C000E00
3C000600
3C000000
3C000000
3C000000
3C000000
3C000000
3C000000
3C000000
3C003000
3FFFF000
3FFFF000
3FFFF000
3C003000
3C000000
3C000000
3C000000
3C000000
3C000000
3C000000
3C000000
3C000000
3C000000
3C000180
3C000380
3C000F80
7FFFFF80
FFFFFF00
FFFFFF00
ENDCHAR
STARTCHAR 00CA
ENCODING 202
SWIDTH 607 0
DWIDTH 27 0
BBX 25 43 2 0
BITMAP
001C0000
003E0000
003E0000
00770000
00E38000
00C18000
0180C000
03006000
00000000
00000000
00000000
FFFFFE00
FFFFFE00
7F01FE00
3C000E00
3C000600
3C000000
3C000000
3C000000
3C000000
3C000000
3C000000
3C000000
3C003000
3FFFF000
3FFFF000
3FFFF000
3C003000
3C000000
3C000000
3C000000
3C000000
3C000000
3C000000
3C000000
3C000000
3C000000
3C000180
3C000380
3C000F80
7FFFFF80
FFFFFF00
FFFFFF00
ENDCHAR
STARTCHAR 00CB
ENCODING 203
SWIDTH 607 0
DWIDTH 27 0
BBX 25 39 2 -7
BITMAP
FFFFFE00
FFFFFE00
7F01FE00
3C000E00
3C000600
3C000000
3C000000
3C000000
3C000000
3C000000
3C000000
3C000000
3C003000
3FFFF000
3FFFF000
3FFFF000
3C003000
3C000000
3C000000
3C000000
3C000000
3C000000
3C000000
3C000000
3C000000
3C000000
3C000180
3C000380
3C000F80
7FFFFF80
FFFFFF00
FFFFFF00
00000000
00000000
00380000
00780000
007C0000
00780000
00380000
ENDCHAR
STARTCHAR 00CC
ENCODING 204
SWIDTH 270 0
DWIDTH 12 0
BBX 9 45 2 0
BITMAP
3E00
6100
2100
0100
0300
0600
0C00
1000
1000
0000
0000
0000
0000
FF80
FF00
7E00
3C00
3C00
3C00
3C00
3C00
3C00
3C00
3C00
3C00
3C00
3C00
3C00
3C00
3C00
3C00
3C00
3C00
3C00
3C00
3C00
3C00
3C00
3C00
3C00
3C00
3C00
7E00
FF00
FF80
ENDCHAR
STARTCHAR 00CD
ENCODING 205
SWIDTH 607 0
DWIDTH 27 0
BBX 25 49 2 0
BITMAP
00002000
00706000
00FFC000
01FFC000
010F0000
03000000
001C0000
003E0000
003E0000
00770000
00E38000
00C18000
0180C000
03006000
00000000
00000000
00000000
FFFFFE00
FFFFFE00
7F01FE00
3C000E00
3C000600
3C000000
3C000000
3C000000
3C000000
3C000000
3C000000
3C000000
3C003000
3FFFF000
3FFFF000
3FFFF000
3C003000
3C000000
3C000000
3C000000
3C000000
3C000000
3C000000
3C000000
3C000000
3C000000
3C000180
3C000380
3C000F80
7FFFFF80
FFFFFF00
FFFFFF00
ENDCHAR
STARTCHAR 00CE
ENCODING 206
SWIDTH 270 0
DWIDTH 12 0
BBX 9 40 2 -8
BITMAP
FF80
FF00
7E00
3C00
3C00
3C00
3C00
3C00
3C00
3C00
3C00
3C00
3C00
3C00
3C00
3C00
3C00
3C00
3C00
3C00
3C00
3C00
3C00
3C00
3C00
3C00
3C00
3C00
3C00
7E00
FF00
FF80
0000
0000
0000
1C00
3E00
3E00
3C00
0800
ENDCHAR
STARTCHAR 00CF
ENCODING 207
SWIDTH 652 0
DWIDTH 29 0
BBX 30 42 -1 0
BITMAP
00000200
00038200
000FFE00
000FFC00
00187800
00100000
00000000
00000000
00000000
00000000
FF8003FC
FF8003FC
3F0000F8
1F0000F0
0F0000E0
0F8000E0
078001C0
07C00180
03C00380
01E00700
01F00600
00F80E00
00781C00
007C3800
003E3800
001F7000
000FE000
000FC000
0007C000
0007C000
0003C000
0003C000
0003C000
0003C000
0003C000
0003C000
0003C000
0003C000
0007C000
0007C000
001FF000
001FF000
ENDCHAR
STARTCHAR 00D0
ENCODING 208
SWIDTH 697 0
DWIDTH 31 0
BBX 32 41 1 -1
BITMAP
0000003E
00000023
00000001
00000001
00000003
00000003
0000001E
00000030
FF8007F8
FF8007F8
3F0003E0
3E0001E0
3E0000E0
3E0000E0
3C0000E0
3C0000E0
3C0000E0
3C0000E0
3C0000E0
3C0000E0
3C0000E0
3C0000E0
3C0000E0
3C0000E0
3C0000E0
3C0000E0
3C0000E0
3C0000E0
3C0000E0
3C0000E0
3C0000E0
3C0000E0
1C0001E0
1E0001C0
1E0001C0
0F000380
0F800780
07E01F00
03FFFE00
00FFF800
003FC000
ENDCHAR
STARTCHAR 00D1
ENCODING 209
SWIDTH 697 0
DWIDTH 31 0
BBX 29 46 1 -1
BITMAP
0003E000
00063000
00063000
00003000
00003000
00006000
0000C000
00010000
00010000
00010000
00000000
00000000
00000000
FF8007F8
FF8007F8
3F0003E0
3E0001E0
3E0000E0
3E0000E0
3C0000E0
3C0000E0
3C0000E0
3C0000E0
3C0000E0
3C0000E0
3C0000E0
3C0000E0
3C0000E0
3C0000E0
3C0000E0
3C0000E0
3C0000E0
3C0000E0
3C0000E0
3C0000E0
3C0000E0
3C0000E0
1C0001E0
1E0001C0
1E0001C0
0F000380
0F800780
07E01F00
03FFFE00
00FFF800
003FC000
ENDCHAR
STARTCHAR 00D2
ENCODING 210
SWIDTH 765 0
DWIDTH 34 0
BBX 31 49 2 -1
BITMAP
70000000
78000000
7C000000
3E000000
0F000000
03838000
01C78000
006FC000
000FE000
001CE000
00383000
00201800
00400800
00000000
00000000
000FC000
007FF800
01FFFE00
07E01F80
0F8007C0
1F0003E0
1E0001F0
3C0000F0
7C0000F8
78000078
7800007C
F800007C
F000003C
F000003C
F000003C
F000003C
F000003E
F000003E
F000003E
F000003C
F000003C
F000003C
F800007C
7800007C
78000078
7C0000F8
3C0000F0
1E0001F0
1F0003E0
0F8007C0
07C00F80
01FFFF00
00FFFC00
001FE000
ENDCHAR
STARTCHAR 00D3
ENCODING 211
SWIDTH 765 0
DWIDTH 34 0
BBX 31 49 2 -1
BITMAP
00000018
00000038
00000078
000000F0
000001C0
00038380
00078600
000FC800
000FE000
001CE000
00383000
00201800
00400800
00000000
00000000
000FC000
007FF800
01FFFE00
07E01F80
0F8007C0
1F0003E0
1E0001F0
3C0000F0
7C0000F8
78000078
7800007C
F800007C
F000003C
F000003C
F000003C
F000003C
F000003E
F000003E
F000003E
F000003C
F000003C
F000003C
F800007C
7800007C
78000078
7C0000F8
3C0000F0
1E0001F0
1F0003E0
0F8007C0
07C00F80
01FFFF00
00FFFC00
001FE000
ENDCHAR
STARTCHAR 00D4
ENCODING 212
SWIDTH 765 0
DWIDTH 34 0
BBX 31 44 2 -1
BITMAP
00038000
00078000
000FC000
000FE000
001CE000
00383000
00201800
00400800
00000000
00000000
000FC000
007FF800
01FFFE00
07E01F80
0F8007C0
1F0003E0
1E0001F0
3C0000F0
7C0000F8
78000078
7800007C
F800007C
F000003C
F000003C
F000003C
F000003C
F000003E
F000003E
F000003E
F000003C
F000003C
F000003C
F800007C
7800007C
78000078
7C0000F8
3C0000F0
1E0001F0
1F0003E0
0F8007C0
07C00F80
01FFFF00
00FFFC00
001FE000
ENDCHAR
STARTCHAR 00D5
ENCODING 213
SWIDTH 765 0
DWIDTH 34 0
BBX 31 46 2 -1
BITMAP
0003C000
00046000
00042000
00002000
00002000
00006000
0000C000
00010000
00020000
00020000
00000000
00000000
000FC000
007FF800
01FFFE00
07E01F80
0F8007C0
1F0003E0
1E0001F0
3C0000F0
7C0000F8
78000078
7800007C
F800007C
F000003C
F000003C
F000003C
F000003C
F000003E
F000003E
F000003E
F000003C
F000003C
F000003C
F800007C
7800007C
78000078
7C0000F8
3C0000F0
1E0001F0
1F0003E0
0F8007C0
07C00F80
01FFFF00
00FFFC00
001FE000
ENDCHAR
STARTCHAR 00D6
ENCODING 214
SWIDTH 765 0
DWIDTH 34 0
BBX 31 41 2 -1
BITMAP
000001E0
00000118
00000008
00000008
00000018
00000030
000000E0
000FC100
007FF900
01FFFE00
07E01F80
0F8007C0
1F0003E0
1E0001F0
3C0000F0
7C0000F8
78000078
7800007C
F800007C
F000003C
F000003C
F000003C
F000003C
F000003E
F000003E
F000003E
F000003C
F000003C
F000003C
F800007C
7800007C
78000078
7C0000F8
3C0000F0
1E0001F0
1F0003E0
0F8007C0
07C00F80
01FFFF00
00FFFC00
001FE000
ENDCHAR
STARTCHAR 00D7
ENCODING 215
SWIDTH 607 0
DWIDTH 27 0
BBX 25 43 2 0
BITMAP
01800000
03C00000
01E00000
00F00000
00380000
001C0000
00060000
00030000
00000000
00000000
00000000
FFFFFE00
FFFFFE00
7F01FE00
3C000E00
3C000600
3C000000
3C000000
3C000000
3C000000
3C000000
3C000000
3C000000
3C003000
3FFFF000
3FFFF000
3FFFF000
3C003000
3C000000
3C000000
3C000000
3C000000
3C000000
3C000000
3C000000
3C000000
3C000000
3C000180
3C000380
3C000F80
7FFFFF80
FFFFFF00
FFFFFF00
ENDCHAR
STARTCHAR 00D8
ENCODING 216
SWIDTH 697 0
DWIDTH 31 0
BBX 32 46 1 -1
BITMAP
00700000
00780000
007C0000
001E0000
000F0000
0003803E
0000C023
00000001
00000001
00000003
00000003
0000001E
00000030
FF8007F8
FF8007F8
3F0003E0
3E0001E0
3E0000E0
3E0000E0
3C0000E0
3C0000E0
3C0000E0
3C0000E0
3C0000E0
3C0000E0
3C0000E0
3C0000E0
3C0000E0
3C0000E0
3C0000E0
3C0000E0
3C0000E0
3C0000E0
3C0000E0
3C0000E0
3C0000E0
3C0000E0
1C0001E0
1E0001C0
1E0001C0
0F000380
0F800780
07E01F00
03FFFE00
00FFF800
003FC000
ENDCHAR
STARTCHAR 00D9
ENCODING 217
SWIDTH 697 0
DWIDTH 31 0
BBX 32 47 1 -1
BITMAP
00000E00
00001E00
00003E00
00003C00
00007000
0000E000
0001803E
00020023
00000001
00000001
00000003
00000003
0000001E
00000030
FF8007F8
FF8007F8
3F0003E0
3E0001E0
3E0000E0
3E0000E0
3C0000E0
3C0000E0
3C0000E0
3C0000E0
3C0000E0
3C0000E0
3C0000E0
3C0000E0
3C0000E0
3C0000E0
3C0000E0
3C0000E0
3C0000E0
3C0000E0
3C0000E0
3C0000E0
3C0000E0
3C0000E0
1C0001E0
1E0001C0
1E0001C0
0F000380
0F800780
07E01F00
03FFFE00
00FFF800
003FC000
ENDCHAR
STARTCHAR 00DA
ENCODING 218
SWIDTH 697 0
DWIDTH 31 0
BBX 29 44 1 -1
BITMAP
00001800
00007800
00007800
0000F000
0001C000
00038000
00060000
00080000
00000000
00000000
00000000
FF8007F8
FF8007F8
3F0003E0
3E0001E0
3E0000E0
3E0000E0
3C0000E0
3C0000E0
3C0000E0
3C0000E0
3C0000E0
3C0000E0
3C0000E0
3C0000E0
3C0000E0
3C0000E0
3C0000E0
3C0000E0
3C0000E0
3C0000E0
3C0000E0
3C0000E0
3C0000E0
3C0000E0
1C0001E0
1E0001C0
1E0001C0
0F000380
0F800780
07E01F00
03FFFE00
00FFF800
003FC000
ENDCHAR
STARTCHAR 00DB
ENCODING 219
SWIDTH 697 0
DWIDTH 31 0
BBX 29 42 1 -1
BITMAP
00000200
000FEE00
000FFC00
0019F800
00100000
00000000
00000000
00000000
00000000
FF8007F8
FF8007F8
3F0003E0
3E0001E0
3E0000E0
3E0000E0
3C0000E0
3C0000E0
3C0000E0
3C0000E0
3C0000E0
3C0000E0
3C0000E0
3C0000E0
3C0000E0
3C0000E0
3C0000E0
3C0000E0
3C0000E0
3C0000E0
3C0000E0
3C0000E0
3C0000E0
3C0000E0
1C0001E0
1E0001C0
1E0001C0
0F000380
0F800780
07E01F00
03FFFE00
00FFF800
003FC000
ENDCHAR
STARTCHAR 00DC
ENCODING 220
SWIDTH 697 0
DWIDTH 31 0
BBX 32 41 1 -1
BITMAP
0000003E
00000023
00000001
00000001
00000003
00000003
0000001E
00000030
FF8007F8
FF8007F8
3F0003E0
3E0001E0
3E0000E0
3E0000E0
3C0000E0
3C0000E0
3C0000E0
3C0000E0
3C0000E0
3C0000E0
3C0000E0
3C0000E0
3C0000E0
3C0000E0
3C0000E0
3C0000E0
3C0000E0
3C0000E0
3C0000E0
3C0000E0
3C0000E0
3C0000E0
1C0001E0
1E0001C0
1E0001C0
0F000380
0F800780
07E01F00
03FFFE00
00FFF800
003FC000
ENDCHAR
STARTCHAR 00DD
ENCODING 221
SWIDTH 652 0
DWIDTH 29 0
BBX 30 43 -1 0
BITMAP
00001800
00003C00
00007800
0000F000
0001E000
00038000
00060000
000C0000
00000000
00000000
00000000
FF8003FC
FF8003FC
3F0000F8
1F0000F0
0F0000E0
0F8000E0
078001C0
07C00180
03C00380
01E00700
01F00600
00F80E00
00781C00
007C3800
003E3800
001F7000
000FE000
000FC000
0007C000
0007C000
0003C000
0003C000
0003C000
0003C000
0003C000
0003C000
0003C000
0003C000
0007C000
0007C000
001FF000
001FF000
ENDCHAR
STARTCHAR 00DE
ENCODING 222
SWIDTH 607 0
DWIDTH 27 0
BBX 25 45 2 0
BITMAP
001E0000
00230000
00210000
00010000
00010000
00030000
000E0000
00080000
00100000
00000000
00000000
00000000
00000000
FFFFFE00
FFFFFE00
7F01FE00
3C000E00
3C000600
3C000000
3C000000
3C000000
3C000000
3C000000
3C000000
3C000000
3C003000
3FFFF000
3FFFF000
3FFFF000
3C003000
3C000000
3C000000
3C000000
3C000000
3C000000
3C000000
3C000000
3C000000
3C000000
3C000180
3C000380
3C000F80
7FFFFF80
FFFFFF00
FFFFFF00
ENDCHAR
STARTCHAR 00DF
ENCODING 223
SWIDTH 652 0
DWIDTH 29 0
BBX 27 33 1 0
BITMAP
001F8000
00FFF000
03E0FC00
07801E00
0F000F00
0E000F00
1E000780
1C000780
1C000780
1C000780
1C000700
1C000F00
1C001E00
1C007C00
1C3FF000
1C7FF000
1C3FFC00
1C001F00
1C000780
1C0003C0
1C0003C0
1C0001E0
1C7001E0
1C7001E0
1CE001E0
1CE001E0
1CC001E0
1CE003C0
1CE003C0
1CF00780
7E7C3F00
FE3FFE00
FE0FF800
ENDCHAR
STARTCHAR 00E0
ENCODING 224
SWIDTH 652 0
DWIDTH 29 0
BBX 29 43 0 0
BITMAP
00600000
00700000
00780000
003C0000
000E0000
00070000
00018000
00004000
00000000
00000000
00020000
00070000
000F8000
000F8000
001FC000
001FC000
0039E000
0039E000
0071F000
0070F000
0070F800
00E07800
00E07800
01C03C00
01C03C00
03803E00
03801E00
03801E00
07000F00
07FFFF00
07FFFF80
0FFFFF80
0E000780
1E0007C0
1C0003C0
1C0003C0
3C0003C0
380001E0
380001E0
780001F0
7C0003F0
FE0007F8
FE0007F8
ENDCHAR
STARTCHAR 00E1
ENCODING 225
SWIDTH 652 0
DWIDTH 29 0
BBX 29 43 0 0
BITMAP
00003000
00007800
0000F000
0001E000
0003C000
00070000
000C0000
00180000
00000000
00000000
00020000
00070000
000F8000
000F8000
001FC000
001FC000
0039E000
0039E000
0071F000
0070F000
0070F800
00E07800
00E07800
01C03C00
01C03C00
03803E00
03801E00
03801E00
07000F00
07FFFF00
07FFFF80
0FFFFF80
0E000780
1E0007C0
1C0003C0
1C0003C0
3C0003C0
380001E0
380001E0
780001F0
7C0003F0
FE0007F8
FE0007F8
ENDCHAR
STARTCHAR 00E2
ENCODING 226
SWIDTH 652 0
DWIDTH 29 0
BBX 29 43 0 0
BITMAP
00070000
000F8000
000F8000
001DC000
0018E000
00306000
00603000
00401800
00000000
00000000
00020000
00070000
000F8000
000F8000
001FC000
001FC000
0039E000
0039E000
0071F000
0070F000
0070F800
00E07800
00E07800
01C03C00
01C03C00
03803E00
03801E00
03801E00
07000F00
07FFFF00
07FFFF80
0FFFFF80
0E000780
1E0007C0
1C0003C0
1C0003C0
3C0003C0
380001E0
380001E0
780001F0
7C0003F0
FE0007F8
FE0007F8
ENDCHAR
STARTCHAR 00E3
ENCODING 227
SWIDTH 652 0
DWIDTH 29 0
BBX 29 42 0 0
BITMAP
00000800
001E1800
003FF000
007FF000
0041C000
00C00000
00000000
00000000
00000000
00020000
00070000
000F8000
000F8000
001FC000
001FC000
0039E000
0039E000
0071F000
0070F000
0070F800
00E07800
00E07800
01C03C00
01C03C00
03803E00
03801E00
03801E00
07000F00
07FFFF00
07FFFF80
0FFFFF80
0E000780
1E0007C0
1C0003C0
1C0003C0
3C0003C0
380001E0
380001E0
780001F0
7C0003F0
FE0007F8
FE0007F8
ENDCHAR
STARTCHAR 00E4
ENCODING 228
SWIDTH 652 0
DWIDTH 29 0
BBX 29 45 0 0
BITMAP
00078000
0008C000
00084000
00004000
00004000
0000C000
00038000
00020000
00040000
00000000
00000000
00000000
00020000
00070000
000F8000
000F8000
001FC000
001FC000
0039E000
0039E000
0071F000
0070F000
0070F800
00E07800
00E07800
01C03C00
01C03C00
03803E00
03801E00
03801E00
07000F00
07FFFF00
07FFFF80
0FFFFF80
0E000780
1E0007C0
1C0003C0
1C0003C0
3C0003C0
380001E0
380001E0
780001F0
7C0003F0
FE0007F8
FE0007F8
ENDCHAR
STARTCHAR 00E5
ENCODING 229
SWIDTH 652 0
DWIDTH 29 0
BBX 29 40 0 -7
BITMAP
00020000
00070000
000F8000
000F8000
001FC000
001FC000
0039E000
0039E000
0071F000
0070F000
0070F800
00E07800
00E07800
01C03C00
01C03C00
03803E00
03801E00
03801E00
07000F00
07FFFF00
07FFFF80
0FFFFF80
0E000780
1E0007C0
1C0003C0
1C0003C0
3C0003C0
380001E0
380001E0
780001F0
7C0003F0
FE0007F8
FE0007F8
00000000
00000000
000E0000
001E0000
001F0000
001E0000
000E0000
ENDCHAR
STARTCHAR 00E6
ENCODING 230
SWIDTH 652 0
DWIDTH 29 0
BBX 29 41 0 0
BITMAP
00801000
00C02000
00606000
007FE000
003FC000
000F0000
00000000
00000000
00020000
00070000
000F8000
000F8000
001FC000
001FC000
0039E000
0039E000
0071F000
0070F000
0070F800
00E07800
00E07800
01C03C00
01C03C00
03803E00
03801E00
03801E00
07000F00
07FFFF00
07FFFF80
0FFFFF80
0E000780
1E0007C0
1C0003C0
1C0003C0
3C0003C0
380001E0
380001E0
780001F0
7C0003F0
FE0007F8
FE0007F8
ENDCHAR
STARTCHAR 00E7
ENCODING 231
SWIDTH 697 0
DWIDTH 31 0
BBX 28 43 2 -10
BITMAP
000FF000
007FFE00
01FFFF80
03E00FC0
078007E0
0F0003E0
1E0001E0
3E0000E0
3C000060
78000060
78000000
F8000000
F8000000
F0000000
F0000000
F0000000
F0000000
F0000000
F0000000
F0000000
F0000000
F8000000
F8000000
F8000000
78000000
7C000030
3E000070
3E0000F0
1F0001E0
0FC003C0
07F00F80
03FFFF00
00FFFC00
001FE000
00020000
0003C000
0003F000
00007000
00003800
00003800
00387000
001FE000
00038000
ENDCHAR
STARTCHAR 00E8
ENCODING 232
SWIDTH 607 0
DWIDTH 27 0
BBX 25 43 2 0
BITMAP
01800000
03C00000
01E00000
00F00000
00380000
001C0000
00060000
00030000
00000000
00000000
00000000
FFFFFE00
FFFFFE00
7F01FE00
3C000E00
3C000600
3C000000
3C000000
3C000000
3C000000
3C000000
3C000000
3C000000
3C003000
3FFFF000
3FFFF000
3FFFF000
3C003000
3C000000
3C000000
3C000000
3C000000
3C000000
3C000000
3C000000
3C000000
3C000000
3C000180
3C000380
3C000F80
7FFFFF80
FFFFFF00
FFFFFF00
ENDCHAR
STARTCHAR 00E9
ENCODING 233
SWIDTH 607 0
DWIDTH 27 0
BBX 25 43 2 0
BITMAP
0000C000
0001E000
0003C000
00078000
000E0000
001C0000
00300000
00600000
00000000
00000000
00000000
FFFFFE00
FFFFFE00
7F01FE00
3C000E00
3C000600
3C000000
3C000000
3C000000
3C000000
3C000000
3C000000
3C000000
3C003000
3FFFF000
3FFFF000
3FFFF000
3C003000
3C000000
3C000000
3C000000
3C000000
3C000000
3C000000
3C000000
3C000000
3C000000
3C000180
3C000380
3C000F80
7FFFFF80
FFFFFF00
FFFFFF00
ENDCHAR
STARTCHAR 00EA
ENCODING 234
SWIDTH 607 0
DWIDTH 27 0
BBX 25 43 2 0
BITMAP
001C0000
003E0000
003E0000
00770000
00E38000
00C18000
0180C000
03006000
00000000
00000000
00000000
FFFFFE00
FFFFFE00
7F01FE00
3C000E00
3C000600
3C000000
3C000000
3C000000
3C000000
3C000000
3C000000
3C000000
3C003000
3FFFF000
3FFFF000
3FFFF000
3C003000
3C000000
3C000000
3C000000
3C000000
3C000000
3C000000
3C000000
3C000000
3C000000
3C000180
3C000380
3C000F80
7FFFFF80
FFFFFF00
FFFFFF00
ENDCHAR
STARTCHAR 00EB
ENCODING 235
SWIDTH 607 0
DWIDTH 27 0
BBX 25 41 2 0
BITMAP
0000C000
00F08000
03FF8000
03FF0000
060C0000
04000000
00000000
00000000
00000000
FFFFFE00
FFFFFE00
7F01FE00
3C000E00
3C000600
3C000000
3C000000
3C000000
3C000000
3C000000
3C000000
3C000000
3C003000
3FFFF000
3FFFF000
3FFFF000
3C003000
3C000000
3C000000
3C000000
3C000000
3C000000
3C000000
3C000000
3C000000
3C000000
3C000180
3C000380
3C000F80
7FFFFF80
FFFFFF00
FFFFFF00
ENDCHAR
STARTCHAR 00EC
ENCODING 236
SWIDTH 270 0
DWIDTH 12 0
BBX 11 43 0 0
BITMAP
E000
F000
F800
3C00
1E00
0700
0380
00C0
0000
0000
0000
3FE0
3FC0
1F80
0F00
0F00
0F00
0F00
0F00
0F00
0F00
0F00
0F00
0F00
0F00
0F00
0F00
0F00
0F00
0F00
0F00
0F00
0F00
0F00
0F00
0F00
0F00
0F00
0F00
0F00
1F80
3FC0
3FE0
ENDCHAR
STARTCHAR 00ED
ENCODING 237
SWIDTH 270 0
DWIDTH 12 0
BBX 10 43 2 0
BITMAP
01C0
03C0
07C0
0F80
1E00
3800
3000
4000
0000
0000
0000
FF80
FF00
7E00
3C00
3C00
3C00
3C00
3C00
3C00
3C00
3C00
3C00
3C00
3C00
3C00
3C00
3C00
3C00
3C00
3C00
3C00
3C00
3C00
3C00
3C00
3C00
3C00
3C00
3C00
7E00
FF00
FF80
ENDCHAR
STARTCHAR 00EE
ENCODING 238
SWIDTH 270 0
DWIDTH 12 0
BBX 12 43 0 0
BITMAP
0700
0F00
1F80
1FC0
38C0
7060
6030
8010
0000
0000
0000
3FE0
3FC0
1F80
0F00
0F00
0F00
0F00
0F00
0F00
0F00
0F00
0F00
0F00
0F00
0F00
0F00
0F00
0F00
0F00
0F00
0F00
0F00
0F00
0F00
0F00
0F00
0F00
0F00
0F00
1F80
3FC0
3FE0
ENDCHAR
STARTCHAR 00EF
ENCODING 239
SWIDTH 270 0
DWIDTH 12 0
BBX 12 41 0 0
BITMAP
0010
3C30
7FE0
FFC0
8300
8000
0000
0000
0000
3FE0
3FC0
1F80
0F00
0F00
0F00
0F00
0F00
0F00
0F00
0F00
0F00
0F00
0F00
0F00
0F00
0F00
0F00
0F00
0F00
0F00
0F00
0F00
0F00
0F00
0F00
0F00
0F00
0F00
1F80
3FC0
3FE0
ENDCHAR
STARTCHAR 00F0
ENCODING 240
SWIDTH 652 0
DWIDTH 29 0
BBX 29 49 0 0
BITMAP
00000800
001C1800
003FF000
007FF000
0043C000
00C00000
00000000
00000000
00801000
00C02000
00606000
007FE000
003FC000
000F0000
00000000
00000000
00020000
00070000
000F8000
000F8000
001FC000
001FC000
0039E000
0039E000
0071F000
0070F000
0070F800
00E07800
00E07800
01C03C00
01C03C00
03803E00
03801E00
03801E00
07000F00
07FFFF00
07FFFF80
0FFFFF80
0E000780
1E0007C0
1C0003C0
1C0003C0
3C0003C0
380001E0
380001E0
780001F0
7C0003F0
FE0007F8
FE0007F8
ENDCHAR
STARTCHAR 00F1
ENCODING 241
SWIDTH 720 0
DWIDTH 32 0
BBX 31 32 0 0
BITMAP
3FFFE000
3FFFFC00
1FC0FF00
0F800F80
0F0007C0
0F0001E0
0F0001F0
0F0000F8
0F000078
0F00007C
0F00003C
0F00003C
0F00003E
7FFF003E
FFFF803E
0F00003E
0F00003E
0F00003E
0F00003E
0F00003E
0F00003C
0F00007C
0F00007C
0F000078
0F0000F8
0F0001F0
0F0003E0
0F0007C0
0F801F80
1FC0FF00
3FFFFC00
3FFFC000
ENDCHAR
STARTCHAR 00F2
ENCODING 242
SWIDTH 765 0
DWIDTH 34 0
BBX 31 44 2 -1
BITMAP
00700000
00780000
007C0000
001E0000
000F0000
00038000
0001C000
00006000
00000000
00000000
000FC000
007FF800
01FFFE00
07E01F80
0F8007C0
1F0003E0
1E0001F0
3C0000F0
7C0000F8
78000078
7800007C
F800007C
F000003C
F000003C
F000003C
F000003C
F000003E
F000003E
F000003E
F000003C
F000003C
F000003C
F800007C
7800007C
78000078
7C0000F8
3C0000F0
1E0001F0
1F0003E0
0F8007C0
07C00F80
01FFFF00
00FFFC00
001FE000
ENDCHAR
STARTCHAR 00F3
ENCODING 243
SWIDTH 765 0
DWIDTH 34 0
BBX 31 44 2 -1
BITMAP
00003800
00007800
0000F800
0001F000
0003C000
00070000
000E0000
00080000
00000000
00000000
000FC000
007FF800
01FFFE00
07E01F80
0F8007C0
1F0003E0
1E0001F0
3C0000F0
7C0000F8
78000078
7800007C
F800007C
F000003C
F000003C
F000003C
F000003C
F000003E
F000003E
F000003E
F000003C
F000003C
F000003C
F800007C
7800007C
78000078
7C0000F8
3C0000F0
1E0001F0
1F0003E0
0F8007C0
07C00F80
01FFFF00
00FFFC00
001FE000
ENDCHAR
STARTCHAR 00F4
ENCODING 244
SWIDTH 765 0
DWIDTH 34 0
BBX 31 44 2 -1
BITMAP
00038000
00078000
000FC000
000FE000
001CE000
00383000
00201800
00400800
00000000
00000000
000FC000
007FF800
01FFFE00
07E01F80
0F8007C0
1F0003E0
1E0001F0
3C0000F0
7C0000F8
78000078
7800007C
F800007C
F000003C
F000003C
F000003C
F000003C
F000003E
F000003E
F000003E
F000003C
F000003C
F000003C
F800007C
7800007C
78000078
7C0000F8
3C0000F0
1E0001F0
1F0003E0
0F8007C0
07C00F80
01FFFF00
00FFFC00
001FE000
ENDCHAR
STARTCHAR 00F5
ENCODING 245
SWIDTH 765 0
DWIDTH 34 0
BBX 31 43 2 -1
BITMAP
00000800
001E0800
003FF800
003FF000
0061C000
00400000
00000000
00000000
00000000
000FC000
007FF800
01FFFE00
07E01F80
0F8007C0
1F0003E0
1E0001F0
3C0000F0
7C0000F8
78000078
7800007C
F800007C
F000003C
F000003C
F000003C
F000003C
F000003E
F000003E
F000003E
F000003C
F000003C
F000003C
F800007C
7800007C
78000078
7C0000F8
3C0000F0
1E0001F0
1F0003E0
0F8007C0
07C00F80
01FFFF00
00FFFC00
001FE000
ENDCHAR
STARTCHAR 00F6
ENCODING 246
SWIDTH 765 0
DWIDTH 34 0
BBX 31 42 2 -1
BITMAP
00303000
00787800
00787800
00787800
00100000
00000000
00000000
00000000
000FC000
007FF800
01FFFE00
07E01F80
0F8007C0
1F0003E0
1E0001F0
3C0000F0
7C0000F8
78000078
7800007C
F800007C
F000003C
F000003C
F000003C
F000003C
F000003E
F000003E
F000003E
F000003C
F000003C
F000003C
F800007C
7800007C
78000078
7C0000F8
3C0000F0
1E0001F0
1F0003E0
0F8007C0
07C00F80
01FFFF00
00FFFC00
001FE000
ENDCHAR
STARTCHAR 00F7
ENCODING 247
SWIDTH 765 0
DWIDTH 34 0
BBX 31 41 2 -1
BITMAP
000001E0
00000118
00000008
00000008
00000018
00000030
000000E0
000FC100
007FF900
01FFFE00
07E01F80
0F8007C0
1F0003E0
1E0001F0
3C0000F0
7C0000F8
78000078
7800007C
F800007C
F000003C
F000003C
F000003C
F000003C
F000003E
F000003E
F000003E
F000003C
F000003C
F000003C
F800007C
7800007C
78000078
7C0000F8
3C0000F0
1E0001F0
1F0003E0
0F8007C0
07C00F80
01FFFF00
00FFFC00
001FE000
ENDCHAR
STARTCHAR 00F8
ENCODING 248
SWIDTH 697 0
DWIDTH 31 0
BBX 29 40 1 -8
BITMAP
FF8007F8
FF8007F8
3F0003E0
3E0001E0
3E0000E0
3E0000E0
3C0000E0
3C0000E0
3C0000E0
3C0000E0
3C0000E0
3C0000E0
3C0000E0
3C0000E0
3C0000E0
3C0000E0
3C0000E0
3C0000E0
3C0000E0
3C0000E0
3C0000E0
3C0000E0
3C0000E0
3C0000E0
1C0001E0
1E0001C0
1E0001C0
0F000380
0F800780
07E01F00
03FFFE00
00FFF800
003FC000
00000000
00000000
00070000
000F8000
000F8000
000F8000
00070000
ENDCHAR
STARTCHAR 00F9
ENCODING 249
SWIDTH 697 0
DWIDTH 31 0
BBX 29 44 1 -1
BITMAP
00700000
00780000
007C0000
001E0000
000F0000
00038000
0000C000
00006000
00000000
00000000
00000000
FF8007F8
FF8007F8
3F0003E0
3E0001E0
3E0000E0
3E0000E0
3C0000E0
3C0000E0
3C0000E0
3C0000E0
3C0000E0
3C0000E0
3C0000E0
3C0000E0
3C0000E0
3C0000E0
3C0000E0
3C0000E0
3C0000E0
3C0000E0
3C0000E0
3C0000E0
3C0000E0
3C0000E0
1C0001E0
1E0001C0
1E0001C0
0F000380
0F800780
07E01F00
03FFFE00
00FFF800
003FC000
ENDCHAR
STARTCHAR 00FA
ENCODING 250
SWIDTH 697 0
DWIDTH 31 0
BBX 29 44 1 -1
BITMAP
00001800
00007800
00007800
0000F000
0001C000
00038000
00060000
00080000
00000000
00000000
00000000
FF8007F8
FF8007F8
3F0003E0
3E0001E0
3E0000E0
3E0000E0
3C0000E0
3C0000E0
3C0000E0
3C0000E0
3C0000E0
3C0000E0
3C0000E0
3C0000E0
3C0000E0
3C0000E0
3C0000E0
3C0000E0
3C0000E0
3C0000E0
3C0000E0
3C0000E0
3C0000E0
3C0000E0
1C0001E0
1E0001C0
1E0001C0
0F000380
0F800780
07E01F00
03FFFE00
00FFF800
003FC000
ENDCHAR
STARTCHAR 00FB
ENCODING 251
SWIDTH 697 0
DWIDTH 31 0
BBX 29 46 1 -1
BITMAP
0003E000
00063000
00063000
00003000
00003000
00006000
0000C000
00010000
00010000
00010000
00000000
00000000
00000000
FF8007F8
FF8007F8
3F0003E0
3E0001E0
3E0000E0
3E0000E0
3C0000E0
3C0000E0
3C0000E0
3C0000E0
3C0000E0
3C0000E0
3C0000E0
3C0000E0
3C0000E0
3C0000E0
3C0000E0
3C0000E0
3C0000E0
3C0000E0
3C0000E0
3C0000E0
3C0000E0
3C0000E0
1C0001E0
1E0001C0
1E0001C0
0F000380
0F800780
07E01F00
03FFFE00
00FFF800
003FC000
ENDCHAR
STARTCHAR 00FC
ENCODING 252
SWIDTH 697 0
DWIDTH 31 0
BBX 29 42 1 -1
BITMAP
00103000
00387800
007C7800
00387800
00100000
00000000
00000000
00000000
00000000
FF8007F8
FF8007F8
3F0003E0
3E0001E0
3E0000E0
3E0000E0
3C0000E0
3C0000E0
3C0000E0
3C0000E0
3C0000E0
3C0000E0
3C0000E0
3C0000E0
3C0000E0
3C0000E0
3C0000E0
3C0000E0
3C0000E0
3C0000E0
3C0000E0
3C0000E0
3C0000E0
3C0000E0
1C0001E0
1E0001C0
1E0001C0
0F000380
0F800780
07E01F00
03FFFE00
00FFF800
003FC000
ENDCHAR
STARTCHAR 00FD
ENCODING 253
SWIDTH 652 0
DWIDTH 29 0
BBX 30 45 -1 0
BITMAP
0003C000
00046000
00042000
00002000
00002000
00006000
0001C000
00010000
00020000
00000000
00000000
00000000
00000000
FF8003FC
FF8003FC
3F0000F8
1F0000F0
0F0000E0
0F8000E0
078001C0
07C00180
03C00380
01E00700
01F00600
00F80E00
00781C00
007C3800
003E3800
001F7000
000FE000
000FC000
0007C000
0007C000
0003C000
0003C000
0003C000
0003C000
0003C000
0003C000
0003C000
0003C000
0007C000
0007C000
001FF000
001FF000
ENDCHAR
STARTCHAR 00FE
ENCODING 254
SWIDTH 607 0
DWIDTH 27 0
BBX 25 41 2 0
BITMAP
0000C000
00F08000
03FF8000
03FF0000
060C0000
04000000
00000000
00000000
00000000
FFFFFE00
FFFFFE00
7F01FE00
3C000E00
3C000600
3C000000
3C000000
3C000000
3C000000
3C000000
3C000000
3C000000
3C003000
3FFFF000
3FFFF000
3FFFF000
3C003000
3C000000
3C000000
3C000000
3C000000
3C000000
3C000000
3C000000
3C000000
3C000000
3C000180
3C000380
3C000F80
7FFFFF80
FFFFFF00
FFFFFF00
ENDCHAR
STARTCHAR 00FF
ENCODING 255
SWIDTH 652 0
DWIDTH 29 0
BBX 30 43 -1 0
BITMAP
00600000
00F00000
00F80000
007C0000
001E0000
00070000
00038000
0000C000
00000000
00000000
00000000
FF8003FC
FF8003FC
3F0000F8
1F0000F0
0F0000E0
0F8000E0
078001C0
07C00180
03C00380
01E00700
01F00600
00F80E00
00781C00
007C3800
003E3800
001F7000
000FE000
000FC000
0007C000
0007C000
0003C000
0003C000
0003C000
0003C000
0003C000
0003C000
0003C000
0003C000
0007C000
0007C000
001FF000
001FF000
ENDCHAR
STARTCHAR 0106
ENCODING 262
SWIDTH 697 0
DWIDTH 31 0
BBX 0 0 0 0
BITMAP
ENDCHAR
STARTCHAR 0107
ENCODING 263
SWIDTH 427 0
DWIDTH 19 0
BBX 0 0 0 0
BITMAP
ENDCHAR
STARTCHAR 010C
ENCODING 268
SWIDTH 697 0
DWIDTH 31 0
BBX 0 0 0 0
BITMAP
ENDCHAR
STARTCHAR 010D
ENCODING 269
SWIDTH 427 0
DWIDTH 19 0
BBX 0 0 0 0
BITMAP
ENDCHAR
STARTCHAR 0111
ENCODING 273
SWIDTH 540 0
DWIDTH 24 0
BBX 0 0 0 0
BITMAP
ENDCHAR
STARTCHAR 011E
ENCODING 286
SWIDTH 765 0
DWIDTH 34 0
BBX 0 0 0 0
BITMAP
ENDCHAR
STARTCHAR 011F
ENCODING 287
SWIDTH 495 0
DWIDTH 22 0
BBX 0 0 0 0
BITMAP
ENDCHAR
STARTCHAR 0130
ENCODING 304
SWIDTH 270 0
DWIDTH 12 0
BBX 0 0 0 0
BITMAP
ENDCHAR
STARTCHAR 0131
ENCODING 305
SWIDTH 225 0
DWIDTH 10 0
BBX 0 0 0 0
BITMAP
ENDCHAR
STARTCHAR 0141
ENCODING 321
SWIDTH 585 0
DWIDTH 26 0
BBX 0 0 0 0
BITMAP
ENDCHAR
STARTCHAR 0142
ENCODING 322
SWIDTH 225 0
DWIDTH 10 0
BBX 0 0 0 0
BITMAP
ENDCHAR
STARTCHAR 0152
ENCODING 338
SWIDTH 607 0
DWIDTH 27 0
BBX 25 51 2 -8
BITMAP
001C0000
003E0000
003E0000
00770000
00E38000
00C18000
0180C000
03006000
00000000
00000000
00000000
FFFFFE00
FFFFFE00
7F01FE00
3C000E00
3C000600
3C000000
3C000000
3C000000
3C000000
3C000000
3C000000
3C000000
3C003000
3FFFF000
3FFFF000
3FFFF000
3C003000
3C000000
3C000000
3C000000
3C000000
3C000000
3C000000
3C000000
3C000000
3C000000
3C000180
3C000380
3C000F80
7FFFFF80
FFFFFF00
FFFFFF00
00000000
00000000
00000000
001C0000
003E0000
003E0000
001E0000
00080000
ENDCHAR
STARTCHAR 0153
ENCODING 339
SWIDTH 652 0
DWIDTH 29 0
BBX 30 39 -1 -7
BITMAP
FF8003FC
FF8003FC
3F0000F8
1F0000F0
0F0000E0
0F8000E0
078001C0
07C00180
03C00380
01E00700
01F00600
00F80E00
00781C00
007C3800
003E3800
001F7000
000FE000
000FC000
0007C000
0007C000
0003C000
0003C000
0003C000
0003C000
0003C000
0003C000
0003C000
0003C000
0007C000
0007C000
001FF000
001FF000
00000000
00000000
00018000
0003C000
0007C000
0003C000
0003C000
ENDCHAR
STARTCHAR 015E
ENCODING 350
SWIDTH 562 0
DWIDTH 25 0
BBX 0 0 0 0
BITMAP
ENDCHAR
STARTCHAR 015F
ENCODING 351
SWIDTH 382 0
DWIDTH 17 0
BBX 0 0 0 0
BITMAP
ENDCHAR
STARTCHAR 0160
ENCODING 352
SWIDTH 607 0
DWIDTH 27 0
BBX 26 48 1 0
BITMAP
C0000000
E0000000
F0000000
78000000
1C000000
0E0E0000
031F0000
009F0000
003B8000
0071C000
0060C000
00C06000
01803000
00000000
00000000
00000000
7FFFFF00
7FFFFF00
3F80FF00
1E000700
1E000300
1E000000
1E000000
1E000000
1E000000
1E000000
1E000000
1E000000
1E001800
1FFFF800
1FFFF800
1FFFF800
1E001800
1E000000
1E000000
1E000000
1E000000
1E000000
1E000000
1E000000
1E000000
1E000000
1E0000C0
1E0001C0
1E0007C0
3FFFFFC0
7FFFFF80
7FFFFF80
ENDCHAR
STARTCHAR 0161
ENCODING 353
SWIDTH 652 0
DWIDTH 29 0
BBX 30 43 -1 0
BITMAP
00001800
00003C00
00007800
0000F000
0001E000
00038000
00060000
000C0000
00000000
00000000
00000000
FF8003FC
FF8003FC
3F0000F8
1F0000F0
0F0000E0
0F8000E0
078001C0
07C00180
03C00380
01E00700
01F00600
00F80E00
00781C00
007C3800
003E3800
001F7000
000FE000
000FC000
0007C000
0007C000
0003C000
0003C000
0003C000
0003C000
0003C000
0003C000
0003C000
0003C000
0007C000
0007C000
001FF000
001FF000
ENDCHAR
STARTCHAR 0178
ENCODING 376
SWIDTH 765 0
DWIDTH 34 0
BBX 31 49 2 -1
BITMAP
0003C000
00046000
00042000
00002000
00002000
00006000
0000C000
00018000
000201E0
00020118
00000008
00000008
00000018
00000030
000000E0
000FC100
007FF900
01FFFE00
07E01F80
0F8007C0
1F0003E0
1E0001F0
3C0000F0
7C0000F8
78000078
7800007C
F800007C
F000003C
F000003C
F000003C
F000003C
F000003E
F000003E
F000003E
F000003C
F000003C
F000003C
F800007C
7800007C
78000078
7C0000F8
3C0000F0
1E0001F0
1F0003E0
0F8007C0
07C00F80
01FFFF00
00FFFC00
001FE000
ENDCHAR
STARTCHAR 017D
ENCODING 381
SWIDTH 540 0
DWIDTH 24 0
BBX 0 0 0 0
BITMAP
ENDCHAR
STARTCHAR 017E
ENCODING 382
SWIDTH 382 0
DWIDTH 17 0
BBX 0 0 0 0
BITMAP
ENDCHAR
STARTCHAR 0192
ENCODING 402
SWIDTH 652 0
DWIDTH 29 0
BBX 29 48 0 0
BITMAP
00000038
00000078
000000F8
000001F0
000001C0
00070380
000F8600
000F8800
001DC000
0018E000
00306000
00603000
00401800
00000000
00000000
00020000
00070000
000F8000
000F8000
001FC000
001FC000
0039E000
0039E000
0071F000
0070F000
0070F800
00E07800
00E07800
01C03C00
01C03C00
03803E00
03801E00
03801E00
07000F00
07FFFF00
07FFFF80
0FFFFF80
0E000780
1E0007C0
1C0003C0
1C0003C0
3C0003C0
380001E0
380001E0
780001F0
7C0003F0
FE0007F8
FE0007F8
ENDCHAR
STARTCHAR 02C6
ENCODING 710
SWIDTH 652 0
DWIDTH 29 0
BBX 29 41 0 0
BITMAP
00801000
00C02000
00606000
007FE000
003FC000
000F0000
00000000
00000000
00020000
00070000
000F8000
000F8000
001FC000
001FC000
0039E000
0039E000
0071F000
0070F000
0070F800
00E07800
00E07800
01C03C00
01C03C00
03803E00
03801E00
03801E00
07000F00
07FFFF00
07FFFF80
0FFFFF80
0E000780
1E0007C0
1C0003C0
1C0003C0
3C0003C0
380001E0
380001E0
780001F0
7C0003F0
FE0007F8
FE0007F8
ENDCHAR
STARTCHAR 02C7
ENCODING 711
SWIDTH 495 0
DWIDTH 22 0
BBX 0 0 0 0
BITMAP
ENDCHAR
STARTCHAR 02DA
ENCODING 730
SWIDTH 495 0
DWIDTH 22 0
BBX 0 0 0 0
BITMAP
ENDCHAR
STARTCHAR 02DB
ENCODING 731
SWIDTH 495 0
DWIDTH 22 0
BBX 0 0 0 0
BITMAP
ENDCHAR
STARTCHAR 02DC
ENCODING 732
SWIDTH 765 0
DWIDTH 34 0
BBX 31 51 2 -1
BITMAP
00000300
00000CC0
00000840
00000060
00000060
00000040
000001C0
00038300
00078200
000FC200
000FE000
001CE000
00383000
00201800
00400800
00000000
00000000
000FC000
007FF800
01FFFE00
07E01F80
0F8007C0
1F0003E0
1E0001F0
3C0000F0
7C0000F8
78000078
7800007C
F800007C
F000003C
F000003C
F000003C
F000003C
F000003E
F000003E
F000003E
F000003C
F000003C
F000003C
F800007C
7800007C
78000078
7C0000F8
3C0000F0
1E0001F0
1F0003E0
0F8007C0
07C00F80
01FFFF00
00FFFC00
001FE000
ENDCHAR
STARTCHAR 03A9
ENCODING 937
SWIDTH 765 0
DWIDTH 34 0
BBX 0 0 0 0
BITMAP
ENDCHAR
STARTCHAR 03C0
ENCODING 960
SWIDTH 652 0
DWIDTH 29 0
BBX 0 0 0 0
BITMAP
ENDCHAR
STARTCHAR 2013
ENCODING 8211
SWIDTH 765 0
DWIDTH 34 0
BBX 31 49 2 -1
BITMAP
00000018
00000038
00000078
000000F0
000001C0
00038380
00078600
000FC800
000FE000
001CE000
00383000
00201800
00400800
00000000
00000000
000FC000
007FF800
01FFFE00
07E01F80
0F8007C0
1F0003E0
1E0001F0
3C0000F0
7C0000F8
78000078
7800007C
F800007C
F000003C
F000003C
F000003C
F000003C
F000003E
F000003E
F000003E
F000003C
F000003C
F000003C
F800007C
7800007C
78000078
7C0000F8
3C0000F0
1E0001F0
1F0003E0
0F8007C0
07C00F80
01FFFF00
00FFFC00
001FE000
ENDCHAR
STARTCHAR 2014
ENCODING 8212
SWIDTH 765 0
DWIDTH 34 0
BBX 31 49 2 -1
BITMAP
70000000
78000000
7C000000
3E000000
0F000000
03838000
01C78000
006FC000
000FE000
001CE000
00383000
00201800
00400800
00000000
00000000
000FC000
007FF800
01FFFE00
07E01F80
0F8007C0
1F0003E0
1E0001F0
3C0000F0
7C0000F8
78000078
7800007C
F800007C
F000003C
F000003C
F000003C
F000003C
F000003E
F000003E
F000003E
F000003C
F000003C
F000003C
F800007C
7800007C
78000078
7C0000F8
3C0000F0
1E0001F0
1F0003E0
0F8007C0
07C00F80
01FFFF00
00FFFC00
001FE000
ENDCHAR
STARTCHAR 2018
ENCODING 8216
SWIDTH 270 0
DWIDTH 12 0
BBX 6 12 4 21
BITMAP
08
18
30
60
40
40
C0
F8
FC
FC
78
38
ENDCHAR
STARTCHAR 2019
ENCODING 8217
SWIDTH 270 0
DWIDTH 12 0
BBX 6 12 2 21
BITMAP
30
78
FC
7C
7C
0C
0C
08
18
10
20
60
ENDCHAR
STARTCHAR 201A
ENCODING 8218
SWIDTH 652 0
DWIDTH 29 0
BBX 29 42 0 0
BITMAP
00000800
001E1800
003FF000
007FF000
0041C000
00C00000
00000000
00000000
00000000
00020000
00070000
000F8000
000F8000
001FC000
001FC000
0039E000
0039E000
0071F000
0070F000
0070F800
00E07800
00E07800
01C03C00
01C03C00
03803E00
03801E00
03801E00
07000F00
07FFFF00
07FFFF80
0FFFFF80
0E000780
1E0007C0
1C0003C0
1C0003C0
3C0003C0
380001E0
380001E0
780001F0
7C0003F0
FE0007F8
FE0007F8
ENDCHAR
STARTCHAR 201C
ENCODING 8220
SWIDTH 607 0
DWIDTH 27 0
BBX 26 48 1 0
BITMAP
C0000000
E0000000
F0000000
78000000
1C000000
0E0E0000
031F0000
009F0000
003B8000
0071C000
0060C000
00C06000
01803000
00000000
00000000
00000000
7FFFFF00
7FFFFF00
3F80FF00
1E000700
1E000300
1E000000
1E000000
1E000000
1E000000
1E000000
1E000000
1E000000
1E001800
1FFFF800
1FFFF800
1FFFF800
1E001800
1E000000
1E000000
1E000000
1E000000
1E000000
1E000000
1E000000
1E000000
1E000000
1E0000C0
1E0001C0
1E0007C0
3FFFFFC0
7FFFFF80
7FFFFF80
ENDCHAR
STARTCHAR 201D
ENCODING 8221
SWIDTH 607 0
DWIDTH 27 0
BBX 25 50 2 0
BITMAP
00003C00
00004200
00004200
00000300
00000200
00000600
00001C00
001C1000
003E1000
003E1000
00770000
00E38000
00C18000
0180C000
03006000
00000000
00000000
00000000
FFFFFE00
FFFFFE00
7F01FE00
3C000E00
3C000600
3C000000
3C000000
3C000000
3C000000
3C000000
3C000000
3C000000
3C003000
3FFFF000
3FFFF000
3FFFF000
3C003000
3C000000
3C000000
3C000000
3C000000
3C000000
3C000000
3C000000
3C000000
3C000000
3C000180
3C000380
3C000F80
7FFFFF80
FFFFFF00
FFFFFF00
ENDCHAR
STARTCHAR 201E
ENCODING 8222
SWIDTH 652 0
DWIDTH 29 0
BBX 29 48 0 0
BITMAP
70000000
78000000
7C000000
3C000000
0E000000
03070000
018F8000
004F8000
001DC000
0018E000
00306000
00603000
00401800
00000000
00000000
00020000
00070000
000F8000
000F8000
001FC000
001FC000
0039E000
0039E000
0071F000
0070F000
0070F800
00E07800
00E07800
01C03C00
01C03C00
03803E00
03801E00
03801E00
07000F00
07FFFF00
07FFFF80
0FFFFF80
0E000780
1E0007C0
1C0003C0
1C0003C0
3C0003C0
380001E0
380001E0
780001F0
7C0003F0
FE0007F8
FE0007F8
ENDCHAR
STARTCHAR 2020
ENCODING 8224
SWIDTH 765 0
DWIDTH 34 0
BBX 31 41 2 -8
BITMAP
000FC000
007FF800
01FFFE00
07E01F80
0F8007C0
1F0003E0
1E0001F0
3C0000F0
7C0000F8
78000078
7800007C
F800007C
F000003C
F000003C
F000003C
F000003C
F000003E
F000003E
F000003E
F000003C
F000003C
F000003C
F800007C
7800007C
78000078
7C0000F8
3C0000F0
1E0001F0
1F0003E0
0F8007C0
07C00F80
01FFFF00
00FFFC00
001FE000
00000000
00000000
00038000
0007C000
0007C000
00078000
00038000
ENDCHAR
STARTCHAR 2021
ENCODING 8225
SWIDTH 765 0
DWIDTH 34 0
BBX 31 50 2 -1
BITMAP
00000800
000E0800
003FF800
003FF000
0061E000
00400000
00038000
00078000
000FC000
000FE000
001CE000
00383000
00201800
00400800
00000000
00000000
000FC000
007FF800
01FFFE00
07E01F80
0F8007C0
1F0003E0
1E0001F0
3C0000F0
7C0000F8
78000078
7800007C
F800007C
F000003C
F000003C
F000003C
F000003C
F000003E
F000003E
F000003E
F000003C
F000003C
F000003C
F800007C
7800007C
78000078
7C0000F8
3C0000F0
1E0001F0
1F0003E0
0F8007C0
07C00F80
01FFFF00
00FFFC00
001FE000
ENDCHAR
STARTCHAR 2022
ENCODING 8226
SWIDTH 607 0
DWIDTH 27 0
BBX 25 49 2 0
BITMAP
00002000
00706000
00FFC000
01FFC000
010F0000
03000000
001C0000
003E0000
003E0000
00770000
00E38000
00C18000
0180C000
03006000
00000000
00000000
00000000
FFFFFE00
FFFFFE00
7F01FE00
3C000E00
3C000600
3C000000
3C000000
3C000000
3C000000
3C000000
3C000000
3C000000
3C003000
3FFFF000
3FFFF000
3FFFF000
3C003000
3C000000
3C000000
3C000000
3C000000
3C000000
3C000000
3C000000
3C000000
3C000000
3C000180
3C000380
3C000F80
7FFFFF80
FFFFFF00
FFFFFF00
ENDCHAR
STARTCHAR 2026
ENCODING 8230
SWIDTH 652 0
DWIDTH 29 0
BBX 29 50 0 0
BITMAP
00001F00
00003180
00003080
00000080
00000180
00000100
00000700
00070C00
000F8800
000F8000
001DC000
0018E000
00306000
00603000
00401800
00000000
00000000
00020000
00070000
000F8000
000F8000
001FC000
001FC000
0039E000
0039E000
0071F000
0070F000
0070F800
00E07800
00E07800
01C03C00
01C03C00
03803E00
03801E00
03801E00
07000F00
07FFFF00
07FFFF80
0FFFFF80
0E000780
1E0007C0
1C0003C0
1C0003C0
3C0003C0
380001E0
380001E0
780001F0
7C0003F0
FE0007F8
FE0007F8
ENDCHAR
STARTCHAR 2030
ENCODING 8240
SWIDTH 607 0
DWIDTH 27 0
BBX 27 48 2 0
BITMAP
000001C0
000003E0
000007C0
00000F00
00001E00
001C1800
003E3000
003E4000
00770000
00E38000
00C18000
0180C000
03006000
00000000
00000000
00000000
FFFFFE00
FFFFFE00
7F01FE00
3C000E00
3C000600
3C000000
3C000000
3C000000
3C000000
3C000000
3C000000
3C000000
3C003000
3FFFF000
3FFFF000
3FFFF000
3C003000
3C000000
3C000000
3C000000
3C000000
3C000000
3C000000
3C000000
3C000000
3C000000
3C000180
3C000380
3C000F80
7FFFFF80
FFFFFF00
FFFFFF00
ENDCHAR
STARTCHAR 2039
ENCODING 8249
SWIDTH 607 0
DWIDTH 27 0
BBX 25 50 2 0
BITMAP
00003C00
00004200
00004200
00000300
00000200
00000600
00001C00
001C1000
003E1000
003E1000
00770000
00E38000
00C18000
0180C000
03006000
00000000
00000000
00000000
FFFFFE00
FFFFFE00
7F01FE00
3C000E00
3C000600
3C000000
3C000000
3C000000
3C000000
3C000000
3C000000
3C000000
3C003000
3FFFF000
3FFFF000
3FFFF000
3C003000
3C000000
3C000000
3C000000
3C000000
3C000000
3C000000
3C000000
3C000000
3C000000
3C000180
3C000380
3C000F80
7FFFFF80
FFFFFF00
FFFFFF00
ENDCHAR
STARTCHAR 203A
ENCODING 8250
SWIDTH 652 0
DWIDTH 29 0
BBX 30 45 -1 0
BITMAP
0003C000
00046000
00042000
00002000
00002000
00006000
0001C000
00010000
00020000
00000000
00000000
00000000
00000000
FF8003FC
FF8003FC
3F0000F8
1F0000F0
0F0000E0
0F8000E0
078001C0
07C00180
03C00380
01E00700
01F00600
00F80E00
00781C00
007C3800
003E3800
001F7000
000FE000
000FC000
0007C000
0007C000
0003C000
0003C000
0003C000
0003C000
0003C000
0003C000
0003C000
0003C000
0007C000
0007C000
001FF000
001FF000
ENDCHAR
STARTCHAR 20A3
ENCODING 8355
SWIDTH 877 0
DWIDTH 39 0
BBX 0 0 0 0
BITMAP
ENDCHAR
STARTCHAR 2122
ENCODING 8482
SWIDTH 765 0
DWIDTH 34 0
BBX 31 50 2 -1
BITMAP
00000800
000E0800
003FF800
003FF000
0061E000
00400000
00038000
00078000
000FC000
000FE000
001CE000
00383000
00201800
00400800
00000000
00000000
000FC000
007FF800
01FFFE00
07E01F80
0F8007C0
1F0003E0
1E0001F0
3C0000F0
7C0000F8
78000078
7800007C
F800007C
F000003C
F000003C
F000003C
F000003C
F000003E
F000003E
F000003E
F000003C
F000003C
F000003C
F800007C
7800007C
78000078
7C0000F8
3C0000F0
1E0001F0
1F0003E0
0F8007C0
07C00F80
01FFFF00
00FFFC00
001FE000
ENDCHAR
STARTCHAR 2202
ENCODING 8706
SWIDTH 495 0
DWIDTH 22 0
BBX 0 0 0 0
BITMAP
ENDCHAR
STARTCHAR 2206
ENCODING 8710
SWIDTH 585 0
DWIDTH 26 0
BBX 0 0 0 0
BITMAP
ENDCHAR
STARTCHAR 220F
ENCODING 8719
SWIDTH 765 0
DWIDTH 34 0
BBX 0 0 0 0
BITMAP
ENDCHAR
STARTCHAR 2211
ENCODING 8721
SWIDTH 697 0
DWIDTH 31 0
BBX 0 0 0 0
BITMAP
ENDCHAR
STARTCHAR 2212
ENCODING 8722
SWIDTH 832 0
DWIDTH 37 0
BBX 0 0 0 0
BITMAP
ENDCHAR
STARTCHAR 2215
ENCODING 8725
SWIDTH 157 0
DWIDTH 7 0
BBX 0 0 0 0
BITMAP
ENDCHAR
STARTCHAR 2219
ENCODING 8729
SWIDTH 270 0
DWIDTH 12 0
BBX 9 45 2 0
BITMAP
3E00
6100
2100
0100
0300
0600
0C00
1000
1000
0000
0000
0000
0000
FF80
FF00
7E00
3C00
3C00
3C00
3C00
3C00
3C00
3C00
3C00
3C00
3C00
3C00
3C00
3C00
3C00
3C00
3C00
3C00
3C00
3C00
3C00
3C00
3C00
3C00
3C00
3C00
3C00
7E00
FF00
FF80
ENDCHAR
STARTCHAR 221A
ENCODING 8730
SWIDTH 607 0
DWIDTH 27 0
BBX 0 0 0 0
BITMAP
ENDCHAR
STARTCHAR 221E
ENCODING 8734
SWIDTH 832 0
DWIDTH 37 0
BBX 0 0 0 0
BITMAP
ENDCHAR
STARTCHAR 222B
ENCODING 8747
SWIDTH 495 0
DWIDTH 22 0
BBX 0 0 0 0
BITMAP
ENDCHAR
STARTCHAR 2248
ENCODING 8776
SWIDTH 832 0
DWIDTH 37 0
BBX 0 0 0 0
BITMAP
ENDCHAR
STARTCHAR 2260
ENCODING 8800
SWIDTH 832 0
DWIDTH 37 0
BBX 0 0 0 0
BITMAP
ENDCHAR
STARTCHAR 2264
ENCODING 8804
SWIDTH 832 0
DWIDTH 37 0
BBX 0 0 0 0
BITMAP
ENDCHAR
STARTCHAR 2265
ENCODING 8805
SWIDTH 832 0
DWIDTH 37 0
BBX 0 0 0 0
BITMAP
ENDCHAR
STARTCHAR 25CA
ENCODING 9674
SWIDTH 472 0
DWIDTH 21 0
BBX 0 0 0 0
BITMAP
ENDCHAR
STARTCHAR F000
ENCODING 61440
SWIDTH 787 0
DWIDTH 35 0
BBX 0 0 0 0
BITMAP
ENDCHAR
STARTCHAR F001
ENCODING 61441
SWIDTH 517 0
DWIDTH 23 0
BBX 0 0 0 0
BITMAP
ENDCHAR
STARTCHAR F002
ENCODING 61442
SWIDTH 517 0
DWIDTH 23 0
BBX 0 0 0 0
BITMAP
ENDCHAR
ENDFONT
